<?xml version="1.0" encoding="UTF-8"?>
<!DOCTYPE svg PUBLIC "-//W3C//DTD SVG 1.1//EN" "http://www.w3.org/Graphics/SVG/1.1/DTD/svg11.dtd">
<svg version="1.2" width="208.75mm" height="122.23mm" viewBox="0 0 20875 12223" preserveAspectRatio="xMidYMid" fill-rule="evenodd" stroke-width="28.222" stroke-linejoin="round" xmlns="http://www.w3.org/2000/svg" xmlns:ooo="http://xml.openoffice.org/svg/export" xmlns:xlink="http://www.w3.org/1999/xlink" xmlns:presentation="http://sun.com/xmlns/staroffice/presentation" xmlns:smil="http://www.w3.org/2001/SMIL20/" xmlns:anim="urn:oasis:names:tc:opendocument:xmlns:animation:1.0" xml:space="preserve">
 <defs class="ClipPathGroup">
  <clipPath id="presentation_clip_path" clipPathUnits="userSpaceOnUse">
   <rect x="0" y="0" width="20875" height="12223"/>
  </clipPath>
  <clipPath id="presentation_clip_path_shrink" clipPathUnits="userSpaceOnUse">
   <rect x="20" y="12" width="20834" height="12199"/>
  </clipPath>
 </defs>
 <defs class="TextShapeIndex">
  <g ooo:slide="id1" ooo:id-list="id3 id4 id5 id6 id7 id8 id9 id10 id11 id12 id13 id14 id15 id16 id17 id18 id19 id20 id21 id22 id23 id24 id25 id26 id27 id28 id29 id30 id31 id32 id33 id34 id35 id36 id37 id38 id39 id40 id41 id42 id43 id44 id45 id46 id47 id48 id49 id50 id51 id52 id53 id54 id55 id56 id57 id58 id59 id60 id61 id62 id63 id64 id65 id66 id67 id68 id69 id70 id71 id72 id73 id74 id75 id76 id77 id78"/>
 </defs>
 <defs class="EmbeddedBulletChars">
  <g id="bullet-char-template-57356" transform="scale(0.00048828125,-0.00048828125)">
   <path d="M 580,1141 L 1163,571 580,0 -4,571 580,1141 Z"/>
  </g>
  <g id="bullet-char-template-57354" transform="scale(0.00048828125,-0.00048828125)">
   <path d="M 8,1128 L 1137,1128 1137,0 8,0 8,1128 Z"/>
  </g>
  <g id="bullet-char-template-10146" transform="scale(0.00048828125,-0.00048828125)">
   <path d="M 174,0 L 602,739 174,1481 1456,739 174,0 Z M 1358,739 L 309,1346 659,739 1358,739 Z"/>
  </g>
  <g id="bullet-char-template-10132" transform="scale(0.00048828125,-0.00048828125)">
   <path d="M 2015,739 L 1276,0 717,0 1260,543 174,543 174,936 1260,936 717,1481 1274,1481 2015,739 Z"/>
  </g>
  <g id="bullet-char-template-10007" transform="scale(0.00048828125,-0.00048828125)">
   <path d="M 0,-2 C -7,14 -16,27 -25,37 L 356,567 C 262,823 215,952 215,954 215,979 228,992 255,992 264,992 276,990 289,987 310,991 331,999 354,1012 L 381,999 492,748 772,1049 836,1024 860,1049 C 881,1039 901,1025 922,1006 886,937 835,863 770,784 769,783 710,716 594,584 L 774,223 C 774,196 753,168 711,139 L 727,119 C 717,90 699,76 672,76 641,76 570,178 457,381 L 164,-76 C 142,-110 111,-127 72,-127 30,-127 9,-110 8,-76 1,-67 -2,-52 -2,-32 -2,-23 -1,-13 0,-2 Z"/>
  </g>
  <g id="bullet-char-template-10004" transform="scale(0.00048828125,-0.00048828125)">
   <path d="M 285,-33 C 182,-33 111,30 74,156 52,228 41,333 41,471 41,549 55,616 82,672 116,743 169,778 240,778 293,778 328,747 346,684 L 369,508 C 377,444 397,411 428,410 L 1163,1116 C 1174,1127 1196,1133 1229,1133 1271,1133 1292,1118 1292,1087 L 1292,965 C 1292,929 1282,901 1262,881 L 442,47 C 390,-6 338,-33 285,-33 Z"/>
  </g>
  <g id="bullet-char-template-9679" transform="scale(0.00048828125,-0.00048828125)">
   <path d="M 813,0 C 632,0 489,54 383,161 276,268 223,411 223,592 223,773 276,916 383,1023 489,1130 632,1184 813,1184 992,1184 1136,1130 1245,1023 1353,916 1407,772 1407,592 1407,412 1353,268 1245,161 1136,54 992,0 813,0 Z"/>
  </g>
  <g id="bullet-char-template-8226" transform="scale(0.00048828125,-0.00048828125)">
   <path d="M 346,457 C 273,457 209,483 155,535 101,586 74,649 74,723 74,796 101,859 155,911 209,963 273,989 346,989 419,989 480,963 531,910 582,859 608,796 608,723 608,648 583,586 532,535 482,483 420,457 346,457 Z"/>
  </g>
  <g id="bullet-char-template-8211" transform="scale(0.00048828125,-0.00048828125)">
   <path d="M -4,459 L 1135,459 1135,606 -4,606 -4,459 Z"/>
  </g>
  <g id="bullet-char-template-61548" transform="scale(0.00048828125,-0.00048828125)">
   <path d="M 173,740 C 173,903 231,1043 346,1159 462,1274 601,1332 765,1332 928,1332 1067,1274 1183,1159 1299,1043 1357,903 1357,740 1357,577 1299,437 1183,322 1067,206 928,148 765,148 601,148 462,206 346,322 231,437 173,577 173,740 Z"/>
  </g>
 </defs>
 <defs class="TextEmbeddedBitmaps"/>
 <g>
  <g id="id2" class="Master_Slide">
   <g id="bg-id2" class="Background"/>
   <g id="bo-id2" class="BackgroundObjects"/>
  </g>
 </g>
 <g class="SlideGroup">
  <g>
   <g id="container-id1">
    <g id="id1" class="Slide" clip-path="url(#presentation_clip_path)">
     <g class="Page">
      <g class="com.sun.star.drawing.ClosedBezierShape">
       <g id="id3">
        <rect class="BoundingBox" stroke="none" fill="none" x="13055" y="6739" width="241" height="381"/>
        <path fill="rgb(0,0,0)" stroke="none" d="M 13126,6881 C 13126,6907 13130,6927 13139,6942 13148,6957 13160,6964 13175,6964 13190,6964 13203,6957 13211,6942 13220,6927 13225,6907 13225,6881 13225,6855 13220,6834 13211,6819 13203,6804 13190,6797 13175,6797 13160,6797 13148,6804 13139,6819 13130,6834 13126,6855 13126,6881 Z M 13225,6978 C 13216,6993 13206,7005 13194,7012 13183,7020 13170,7023 13155,7023 13123,7023 13098,7011 13081,6987 13064,6962 13055,6927 13055,6881 13055,6836 13064,6801 13081,6776 13098,6751 13122,6739 13153,6739 13169,6739 13183,6743 13195,6751 13207,6759 13217,6771 13225,6786 L 13225,6746 13295,6746 13295,7119 13225,7119 13225,6978 Z"/>
       </g>
      </g>
      <g class="com.sun.star.drawing.PolyPolygonShape">
       <g id="id4">
        <rect class="BoundingBox" stroke="none" fill="none" x="6276" y="0" width="301" height="452"/>
        <path fill="rgb(0,0,0)" stroke="none" d="M 6276,0 L 6372,0 6498,328 6498,0 6576,0 6576,451 6481,451 6355,123 6355,451 6276,451 6276,0 Z"/>
       </g>
      </g>
      <g class="com.sun.star.drawing.PolyPolygonShape">
       <g id="id5">
        <rect class="BoundingBox" stroke="none" fill="none" x="20111" y="11785" width="326" height="434"/>
        <path fill="rgb(0,0,0)" stroke="none" d="M 20273,12147 L 20350,11785 20436,11785 20333,12218 20214,12218 20111,11785 20197,11785 20273,12147 Z"/>
       </g>
      </g>
      <g class="com.sun.star.drawing.ClosedBezierShape">
       <g id="id6">
        <rect class="BoundingBox" stroke="none" fill="none" x="20468" y="12009" width="185" height="216"/>
        <path fill="rgb(0,0,0)" stroke="none" d="M 20578,12123 C 20558,12123 20544,12125 20537,12131 20529,12136 20525,12144 20525,12157 20525,12166 20527,12173 20533,12179 20538,12184 20546,12187 20555,12187 20569,12187 20580,12182 20588,12171 20596,12160 20599,12146 20599,12127 L 20599,12123 20578,12123 Z M 20652,12102 L 20652,12218 20599,12218 20599,12196 C 20593,12205 20585,12212 20575,12216 20565,12221 20554,12224 20541,12224 20518,12224 20500,12218 20487,12205 20474,12193 20468,12176 20468,12154 20468,12130 20476,12113 20491,12102 20506,12090 20530,12085 20563,12085 L 20599,12085 20599,12076 C 20599,12067 20596,12060 20590,12056 20584,12052 20575,12049 20563,12049 20550,12049 20538,12051 20526,12054 20514,12057 20501,12063 20488,12070 L 20488,12024 C 20500,12019 20512,12016 20524,12013 20536,12011 20549,12010 20563,12010 20596,12010 20619,12017 20632,12030 20646,12044 20652,12068 20652,12102 Z"/>
       </g>
      </g>
      <g class="com.sun.star.drawing.ClosedBezierShape">
       <g id="id7">
        <rect class="BoundingBox" stroke="none" fill="none" x="20696" y="11942" width="182" height="283"/>
        <path fill="rgb(0,0,0)" stroke="none" d="M 20696,12084 C 20696,12037 20703,12002 20718,11978 20733,11955 20756,11943 20786,11943 20816,11943 20838,11955 20853,11978 20868,12001 20876,12037 20876,12084 20876,12131 20868,12166 20853,12189 20838,12212 20816,12224 20786,12224 20756,12224 20733,12212 20718,12189 20703,12166 20696,12131 20696,12084 Z M 20759,12156 C 20764,12171 20773,12179 20786,12179 20798,12179 20807,12171 20813,12156 20819,12141 20822,12117 20822,12084 20822,12071 20821,12060 20820,12050 L 20757,12151 C 20757,12153 20758,12155 20759,12156 Z M 20786,11988 C 20773,11988 20764,11996 20759,12011 20753,12026 20750,12050 20750,12084 20750,12094 20750,12103 20751,12112 L 20813,12012 20813,12011 C 20807,11996 20798,11988 20786,11988 Z"/>
       </g>
      </g>
      <g class="com.sun.star.drawing.LineShape">
       <g id="id8">
        <rect class="BoundingBox" stroke="none" fill="none" x="6947" y="969" width="51" height="10351"/>
        <path fill="none" stroke="rgb(0,0,0)" stroke-width="49" stroke-linejoin="miter" d="M 6972,969 L 6972,11319"/>
       </g>
      </g>
      <g class="com.sun.star.drawing.PolyPolygonShape">
       <g id="id9">
        <rect class="BoundingBox" stroke="none" fill="none" x="6822" y="595" width="303" height="402"/>
        <path fill="none" stroke="rgb(0,0,0)" stroke-width="49" stroke-linejoin="miter" d="M 7088,971 L 6973,665 6858,971 7088,971 Z"/>
       </g>
      </g>
      <g class="com.sun.star.drawing.PolyPolygonShape">
       <g id="id10">
        <rect class="BoundingBox" stroke="none" fill="none" x="6822" y="595" width="303" height="402"/>
        <path fill="none" stroke="rgb(0,0,0)" stroke-width="49" stroke-linejoin="miter" d="M 7088,971 L 6973,665 6858,971 7088,971 Z"/>
       </g>
      </g>
      <g class="com.sun.star.drawing.LineShape">
       <g id="id11">
        <rect class="BoundingBox" stroke="none" fill="none" x="6972" y="11294" width="12746" height="51"/>
        <path fill="none" stroke="rgb(0,0,0)" stroke-width="49" stroke-linejoin="miter" d="M 19717,11319 L 6972,11319"/>
       </g>
      </g>
      <g class="com.sun.star.drawing.PolyPolygonShape">
       <g id="id12">
        <rect class="BoundingBox" stroke="none" fill="none" x="19692" y="11169" width="402" height="303"/>
        <path fill="none" stroke="rgb(0,0,0)" stroke-width="49" stroke-linejoin="miter" d="M 19717,11435 L 20023,11320 19717,11205 19717,11435 Z"/>
       </g>
      </g>
      <g class="com.sun.star.drawing.PolyPolygonShape">
       <g id="id13">
        <rect class="BoundingBox" stroke="none" fill="none" x="19692" y="11169" width="402" height="303"/>
        <path fill="none" stroke="rgb(0,0,0)" stroke-width="49" stroke-linejoin="miter" d="M 19717,11435 L 20023,11320 19717,11205 19717,11435 Z"/>
       </g>
      </g>
      <g class="com.sun.star.drawing.LineShape">
       <g id="id14">
        <rect class="BoundingBox" stroke="none" fill="none" x="6954" y="608" width="10648" height="10731"/>
        <path fill="none" stroke="rgb(244,35,0)" stroke-width="49" stroke-linejoin="miter" d="M 6972,11320 L 7040,11251"/>
        <path fill="none" stroke="rgb(244,35,0)" stroke-width="49" stroke-linejoin="miter" d="M 7084,11207 L 7152,11139"/>
        <path fill="none" stroke="rgb(244,35,0)" stroke-width="49" stroke-linejoin="miter" d="M 7196,11095 L 7264,11026"/>
        <path fill="none" stroke="rgb(244,35,0)" stroke-width="49" stroke-linejoin="miter" d="M 7307,10982 L 7375,10913"/>
        <path fill="none" stroke="rgb(244,35,0)" stroke-width="49" stroke-linejoin="miter" d="M 7419,10869 L 7487,10801"/>
        <path fill="none" stroke="rgb(244,35,0)" stroke-width="49" stroke-linejoin="miter" d="M 7531,10757 L 7599,10688"/>
        <path fill="none" stroke="rgb(244,35,0)" stroke-width="49" stroke-linejoin="miter" d="M 7643,10644 L 7711,10575"/>
        <path fill="none" stroke="rgb(244,35,0)" stroke-width="49" stroke-linejoin="miter" d="M 7755,10531 L 7823,10463"/>
        <path fill="none" stroke="rgb(244,35,0)" stroke-width="49" stroke-linejoin="miter" d="M 7867,10418 L 7935,10350"/>
        <path fill="none" stroke="rgb(244,35,0)" stroke-width="49" stroke-linejoin="miter" d="M 7978,10306 L 8046,10237"/>
        <path fill="none" stroke="rgb(244,35,0)" stroke-width="49" stroke-linejoin="miter" d="M 8090,10193 L 8158,10125"/>
        <path fill="none" stroke="rgb(244,35,0)" stroke-width="49" stroke-linejoin="miter" d="M 8202,10080 L 8270,10012"/>
        <path fill="none" stroke="rgb(244,35,0)" stroke-width="49" stroke-linejoin="miter" d="M 8314,9968 L 8382,9899"/>
        <path fill="none" stroke="rgb(244,35,0)" stroke-width="49" stroke-linejoin="miter" d="M 8426,9855 L 8494,9786"/>
        <path fill="none" stroke="rgb(244,35,0)" stroke-width="49" stroke-linejoin="miter" d="M 8538,9742 L 8605,9674"/>
        <path fill="none" stroke="rgb(244,35,0)" stroke-width="49" stroke-linejoin="miter" d="M 8649,9630 L 8717,9561"/>
        <path fill="none" stroke="rgb(244,35,0)" stroke-width="49" stroke-linejoin="miter" d="M 8761,9517 L 8829,9448"/>
        <path fill="none" stroke="rgb(244,35,0)" stroke-width="49" stroke-linejoin="miter" d="M 8873,9404 L 8941,9336"/>
        <path fill="none" stroke="rgb(244,35,0)" stroke-width="49" stroke-linejoin="miter" d="M 8985,9291 L 9053,9223"/>
        <path fill="none" stroke="rgb(244,35,0)" stroke-width="49" stroke-linejoin="miter" d="M 9097,9179 L 9165,9110"/>
        <path fill="none" stroke="rgb(244,35,0)" stroke-width="49" stroke-linejoin="miter" d="M 9208,9066 L 9276,8998"/>
        <path fill="none" stroke="rgb(244,35,0)" stroke-width="49" stroke-linejoin="miter" d="M 9320,8953 L 9388,8885"/>
        <path fill="none" stroke="rgb(244,35,0)" stroke-width="49" stroke-linejoin="miter" d="M 9432,8841 L 9500,8772"/>
        <path fill="none" stroke="rgb(244,35,0)" stroke-width="49" stroke-linejoin="miter" d="M 9544,8728 L 9612,8659"/>
        <path fill="none" stroke="rgb(244,35,0)" stroke-width="49" stroke-linejoin="miter" d="M 9656,8615 L 9724,8547"/>
        <path fill="none" stroke="rgb(244,35,0)" stroke-width="49" stroke-linejoin="miter" d="M 9768,8503 L 9836,8434"/>
        <path fill="none" stroke="rgb(244,35,0)" stroke-width="49" stroke-linejoin="miter" d="M 9879,8390 L 9947,8321"/>
        <path fill="none" stroke="rgb(244,35,0)" stroke-width="49" stroke-linejoin="miter" d="M 9991,8277 L 10059,8209"/>
        <path fill="none" stroke="rgb(244,35,0)" stroke-width="49" stroke-linejoin="miter" d="M 10103,8164 L 10171,8096"/>
        <path fill="none" stroke="rgb(244,35,0)" stroke-width="49" stroke-linejoin="miter" d="M 10215,8052 L 10283,7983"/>
        <path fill="none" stroke="rgb(244,35,0)" stroke-width="49" stroke-linejoin="miter" d="M 10327,7939 L 10395,7871"/>
        <path fill="none" stroke="rgb(244,35,0)" stroke-width="49" stroke-linejoin="miter" d="M 10438,7826 L 10506,7758"/>
        <path fill="none" stroke="rgb(244,35,0)" stroke-width="49" stroke-linejoin="miter" d="M 10550,7714 L 10618,7645"/>
        <path fill="none" stroke="rgb(244,35,0)" stroke-width="49" stroke-linejoin="miter" d="M 10662,7601 L 10730,7532"/>
        <path fill="none" stroke="rgb(244,35,0)" stroke-width="49" stroke-linejoin="miter" d="M 10774,7488 L 10842,7420"/>
        <path fill="none" stroke="rgb(244,35,0)" stroke-width="49" stroke-linejoin="miter" d="M 10886,7376 L 10954,7307"/>
        <path fill="none" stroke="rgb(244,35,0)" stroke-width="49" stroke-linejoin="miter" d="M 10998,7263 L 11066,7194"/>
        <path fill="none" stroke="rgb(244,35,0)" stroke-width="49" stroke-linejoin="miter" d="M 11109,7150 L 11177,7082"/>
        <path fill="none" stroke="rgb(244,35,0)" stroke-width="49" stroke-linejoin="miter" d="M 11221,7038 L 11289,6969"/>
        <path fill="none" stroke="rgb(244,35,0)" stroke-width="49" stroke-linejoin="miter" d="M 11333,6925 L 11401,6856"/>
        <path fill="none" stroke="rgb(244,35,0)" stroke-width="49" stroke-linejoin="miter" d="M 11445,6812 L 11513,6744"/>
        <path fill="none" stroke="rgb(244,35,0)" stroke-width="49" stroke-linejoin="miter" d="M 11557,6699 L 11625,6631"/>
        <path fill="none" stroke="rgb(244,35,0)" stroke-width="49" stroke-linejoin="miter" d="M 11669,6587 L 11737,6518"/>
        <path fill="none" stroke="rgb(244,35,0)" stroke-width="49" stroke-linejoin="miter" d="M 11780,6474 L 11848,6406"/>
        <path fill="none" stroke="rgb(244,35,0)" stroke-width="49" stroke-linejoin="miter" d="M 11892,6361 L 11960,6293"/>
        <path fill="none" stroke="rgb(244,35,0)" stroke-width="49" stroke-linejoin="miter" d="M 12004,6249 L 12072,6180"/>
        <path fill="none" stroke="rgb(244,35,0)" stroke-width="49" stroke-linejoin="miter" d="M 12116,6136 L 12184,6067"/>
        <path fill="none" stroke="rgb(244,35,0)" stroke-width="49" stroke-linejoin="miter" d="M 12228,6023 L 12296,5955"/>
        <path fill="none" stroke="rgb(244,35,0)" stroke-width="49" stroke-linejoin="miter" d="M 12339,5911 L 12407,5842"/>
        <path fill="none" stroke="rgb(244,35,0)" stroke-width="49" stroke-linejoin="miter" d="M 12451,5798 L 12519,5729"/>
        <path fill="none" stroke="rgb(244,35,0)" stroke-width="49" stroke-linejoin="miter" d="M 12563,5685 L 12631,5617"/>
        <path fill="none" stroke="rgb(244,35,0)" stroke-width="49" stroke-linejoin="miter" d="M 12675,5572 L 12743,5504"/>
        <path fill="none" stroke="rgb(244,35,0)" stroke-width="49" stroke-linejoin="miter" d="M 12787,5460 L 12855,5391"/>
        <path fill="none" stroke="rgb(244,35,0)" stroke-width="49" stroke-linejoin="miter" d="M 12899,5347 L 12967,5279"/>
        <path fill="none" stroke="rgb(244,35,0)" stroke-width="49" stroke-linejoin="miter" d="M 13010,5234 L 13078,5166"/>
        <path fill="none" stroke="rgb(244,35,0)" stroke-width="49" stroke-linejoin="miter" d="M 13122,5122 L 13190,5053"/>
        <path fill="none" stroke="rgb(244,35,0)" stroke-width="49" stroke-linejoin="miter" d="M 13234,5009 L 13302,4940"/>
        <path fill="none" stroke="rgb(244,35,0)" stroke-width="49" stroke-linejoin="miter" d="M 13346,4896 L 13414,4828"/>
        <path fill="none" stroke="rgb(244,35,0)" stroke-width="49" stroke-linejoin="miter" d="M 13458,4784 L 13526,4715"/>
        <path fill="none" stroke="rgb(244,35,0)" stroke-width="49" stroke-linejoin="miter" d="M 13570,4671 L 13637,4602"/>
        <path fill="none" stroke="rgb(244,35,0)" stroke-width="49" stroke-linejoin="miter" d="M 13681,4558 L 13749,4490"/>
        <path fill="none" stroke="rgb(244,35,0)" stroke-width="49" stroke-linejoin="miter" d="M 13793,4445 L 13861,4377"/>
        <path fill="none" stroke="rgb(244,35,0)" stroke-width="49" stroke-linejoin="miter" d="M 13905,4333 L 13973,4264"/>
        <path fill="none" stroke="rgb(244,35,0)" stroke-width="49" stroke-linejoin="miter" d="M 14017,4220 L 14085,4152"/>
        <path fill="none" stroke="rgb(244,35,0)" stroke-width="49" stroke-linejoin="miter" d="M 14129,4107 L 14197,4039"/>
        <path fill="none" stroke="rgb(244,35,0)" stroke-width="49" stroke-linejoin="miter" d="M 14240,3995 L 14308,3926"/>
        <path fill="none" stroke="rgb(244,35,0)" stroke-width="49" stroke-linejoin="miter" d="M 14352,3882 L 14420,3813"/>
        <path fill="none" stroke="rgb(244,35,0)" stroke-width="49" stroke-linejoin="miter" d="M 14464,3769 L 14532,3701"/>
        <path fill="none" stroke="rgb(244,35,0)" stroke-width="49" stroke-linejoin="miter" d="M 14576,3657 L 14644,3588"/>
        <path fill="none" stroke="rgb(244,35,0)" stroke-width="49" stroke-linejoin="miter" d="M 14688,3544 L 14756,3475"/>
        <path fill="none" stroke="rgb(244,35,0)" stroke-width="49" stroke-linejoin="miter" d="M 14800,3431 L 14868,3363"/>
        <path fill="none" stroke="rgb(244,35,0)" stroke-width="49" stroke-linejoin="miter" d="M 14911,3319 L 14979,3250"/>
        <path fill="none" stroke="rgb(244,35,0)" stroke-width="49" stroke-linejoin="miter" d="M 15023,3206 L 15091,3137"/>
        <path fill="none" stroke="rgb(244,35,0)" stroke-width="49" stroke-linejoin="miter" d="M 15135,3093 L 15203,3025"/>
        <path fill="none" stroke="rgb(244,35,0)" stroke-width="49" stroke-linejoin="miter" d="M 15247,2980 L 15315,2912"/>
        <path fill="none" stroke="rgb(244,35,0)" stroke-width="49" stroke-linejoin="miter" d="M 15359,2868 L 15427,2799"/>
        <path fill="none" stroke="rgb(244,35,0)" stroke-width="49" stroke-linejoin="miter" d="M 15470,2755 L 15538,2687"/>
        <path fill="none" stroke="rgb(244,35,0)" stroke-width="49" stroke-linejoin="miter" d="M 15582,2642 L 15650,2574"/>
        <path fill="none" stroke="rgb(244,35,0)" stroke-width="49" stroke-linejoin="miter" d="M 15694,2530 L 15762,2461"/>
        <path fill="none" stroke="rgb(244,35,0)" stroke-width="49" stroke-linejoin="miter" d="M 15806,2417 L 15874,2348"/>
        <path fill="none" stroke="rgb(244,35,0)" stroke-width="49" stroke-linejoin="miter" d="M 15918,2304 L 15986,2236"/>
        <path fill="none" stroke="rgb(244,35,0)" stroke-width="49" stroke-linejoin="miter" d="M 16030,2192 L 16098,2123"/>
        <path fill="none" stroke="rgb(244,35,0)" stroke-width="49" stroke-linejoin="miter" d="M 16141,2079 L 16209,2010"/>
        <path fill="none" stroke="rgb(244,35,0)" stroke-width="49" stroke-linejoin="miter" d="M 16253,1966 L 16321,1898"/>
        <path fill="none" stroke="rgb(244,35,0)" stroke-width="49" stroke-linejoin="miter" d="M 16365,1853 L 16433,1785"/>
        <path fill="none" stroke="rgb(244,35,0)" stroke-width="49" stroke-linejoin="miter" d="M 16477,1741 L 16545,1672"/>
        <path fill="none" stroke="rgb(244,35,0)" stroke-width="49" stroke-linejoin="miter" d="M 16589,1628 L 16657,1560"/>
        <path fill="none" stroke="rgb(244,35,0)" stroke-width="49" stroke-linejoin="miter" d="M 16701,1515 L 16769,1447"/>
        <path fill="none" stroke="rgb(244,35,0)" stroke-width="49" stroke-linejoin="miter" d="M 16812,1403 L 16880,1334"/>
        <path fill="none" stroke="rgb(244,35,0)" stroke-width="49" stroke-linejoin="miter" d="M 16924,1290 L 16992,1221"/>
        <path fill="none" stroke="rgb(244,35,0)" stroke-width="49" stroke-linejoin="miter" d="M 17036,1177 L 17104,1109"/>
        <path fill="none" stroke="rgb(244,35,0)" stroke-width="49" stroke-linejoin="miter" d="M 17148,1065 L 17216,996"/>
        <path fill="none" stroke="rgb(244,35,0)" stroke-width="49" stroke-linejoin="miter" d="M 17260,952 L 17328,883"/>
        <path fill="none" stroke="rgb(244,35,0)" stroke-width="49" stroke-linejoin="miter" d="M 17371,839 L 17439,771"/>
        <path fill="none" stroke="rgb(244,35,0)" stroke-width="49" stroke-linejoin="miter" d="M 17483,727 L 17551,658"/>
       </g>
      </g>
      <g class="com.sun.star.drawing.LineShape">
       <g id="id15">
        <rect class="BoundingBox" stroke="none" fill="none" x="6972" y="11294" width="1758" height="51"/>
        <path fill="none" stroke="rgb(1,55,207)" stroke-width="49" stroke-linejoin="miter" d="M 6972,11319 L 8729,11319"/>
       </g>
      </g>
      <g class="com.sun.star.drawing.LineShape">
       <g id="id16">
        <rect class="BoundingBox" stroke="none" fill="none" x="10486" y="7725" width="1799" height="51"/>
        <path fill="none" stroke="rgb(1,55,207)" stroke-width="49" stroke-linejoin="miter" d="M 10486,7750 L 12284,7750"/>
       </g>
      </g>
      <g class="com.sun.star.drawing.LineShape">
       <g id="id17">
        <rect class="BoundingBox" stroke="none" fill="none" x="8729" y="9507" width="1758" height="51"/>
        <path fill="none" stroke="rgb(1,55,207)" stroke-width="49" stroke-linejoin="miter" d="M 8729,9532 L 10486,9532"/>
       </g>
      </g>
      <g class="com.sun.star.drawing.LineShape">
       <g id="id18">
        <rect class="BoundingBox" stroke="none" fill="none" x="12284" y="5948" width="1799" height="51"/>
        <path fill="none" stroke="rgb(1,55,207)" stroke-width="49" stroke-linejoin="miter" d="M 12284,5973 L 14082,5973"/>
       </g>
      </g>
      <g class="com.sun.star.drawing.LineShape">
       <g id="id19">
        <rect class="BoundingBox" stroke="none" fill="none" x="14081" y="4161" width="1760" height="51"/>
        <path fill="none" stroke="rgb(1,55,207)" stroke-width="49" stroke-linejoin="miter" d="M 14081,4186 L 15840,4186"/>
       </g>
      </g>
      <g class="com.sun.star.drawing.LineShape">
       <g id="id20">
        <rect class="BoundingBox" stroke="none" fill="none" x="15840" y="2395" width="1799" height="51"/>
        <path fill="none" stroke="rgb(1,55,207)" stroke-width="49" stroke-linejoin="miter" d="M 15840,2420 L 17638,2420"/>
       </g>
      </g>
      <g class="com.sun.star.drawing.LineShape">
       <g id="id21">
        <rect class="BoundingBox" stroke="none" fill="none" x="14056" y="4186" width="51" height="1788"/>
        <path fill="none" stroke="rgb(1,55,207)" stroke-width="49" stroke-linejoin="miter" d="M 14081,5973 L 14081,4186"/>
       </g>
      </g>
      <g class="com.sun.star.drawing.LineShape">
       <g id="id22">
        <rect class="BoundingBox" stroke="none" fill="none" x="15815" y="2420" width="51" height="1767"/>
        <path fill="none" stroke="rgb(1,55,207)" stroke-width="49" stroke-linejoin="miter" d="M 15840,4186 L 15840,2420"/>
       </g>
      </g>
      <g class="com.sun.star.drawing.LineShape">
       <g id="id23">
        <rect class="BoundingBox" stroke="none" fill="none" x="12259" y="5973" width="51" height="1788"/>
        <path fill="none" stroke="rgb(1,55,207)" stroke-width="49" stroke-linejoin="miter" d="M 12284,7760 L 12284,5973"/>
       </g>
      </g>
      <g class="com.sun.star.drawing.LineShape">
       <g id="id24">
        <rect class="BoundingBox" stroke="none" fill="none" x="10461" y="7760" width="51" height="1788"/>
        <path fill="none" stroke="rgb(1,55,207)" stroke-width="49" stroke-linejoin="miter" d="M 10486,9547 L 10486,7760"/>
       </g>
      </g>
      <g class="com.sun.star.drawing.LineShape">
       <g id="id25">
        <rect class="BoundingBox" stroke="none" fill="none" x="8704" y="9540" width="51" height="1788"/>
        <path fill="none" stroke="rgb(1,55,207)" stroke-width="49" stroke-linejoin="miter" d="M 8729,11327 L 8729,9540"/>
       </g>
      </g>
      <g class="com.sun.star.drawing.LineShape">
       <g id="id26">
        <rect class="BoundingBox" stroke="none" fill="none" x="12506" y="6428" width="1354" height="27"/>
        <path fill="none" stroke="rgb(0,0,0)" stroke-width="25" stroke-linejoin="miter" d="M 12506,6441 L 13859,6441"/>
       </g>
      </g>
      <g class="com.sun.star.drawing.PolyPolygonShape">
       <g id="id27">
        <rect class="BoundingBox" stroke="none" fill="none" x="12272" y="6347" width="249" height="187"/>
        <path fill="none" stroke="rgb(0,0,0)" stroke-width="25" stroke-linejoin="miter" d="M 12507,6366 L 12308,6441 12507,6515 12507,6366 Z"/>
       </g>
      </g>
      <g class="com.sun.star.drawing.PolyPolygonShape">
       <g id="id28">
        <rect class="BoundingBox" stroke="none" fill="none" x="12272" y="6347" width="249" height="187"/>
        <path fill="none" stroke="rgb(0,0,0)" stroke-width="25" stroke-linejoin="miter" d="M 12507,6366 L 12308,6441 12507,6515 12507,6366 Z"/>
       </g>
      </g>
      <g class="com.sun.star.drawing.PolyPolygonShape">
       <g id="id29">
        <rect class="BoundingBox" stroke="none" fill="none" x="13846" y="6347" width="249" height="187"/>
        <path fill="none" stroke="rgb(0,0,0)" stroke-width="25" stroke-linejoin="miter" d="M 13859,6515 L 14058,6441 13859,6366 13859,6515 Z"/>
       </g>
      </g>
      <g class="com.sun.star.drawing.PolyPolygonShape">
       <g id="id30">
        <rect class="BoundingBox" stroke="none" fill="none" x="13846" y="6347" width="249" height="187"/>
        <path fill="none" stroke="rgb(0,0,0)" stroke-width="25" stroke-linejoin="miter" d="M 13859,6515 L 14058,6441 13859,6366 13859,6515 Z"/>
       </g>
      </g>
      <g class="com.sun.star.drawing.ClosedBezierShape">
       <g id="id31">
        <rect class="BoundingBox" stroke="none" fill="none" x="6852" y="11739" width="241" height="377"/>
        <path fill="rgb(0,0,0)" stroke="none" d="M 6853,11927 C 6853,11865 6863,11818 6883,11787 6903,11756 6932,11740 6972,11740 7012,11740 7042,11756 7062,11787 7082,11818 7092,11865 7092,11927 7092,11990 7082,12037 7062,12068 7042,12099 7012,12115 6972,12115 6932,12115 6903,12099 6883,12068 6863,12037 6853,11990 6853,11927 Z M 6936,12024 C 6944,12044 6956,12054 6972,12054 6989,12054 7001,12044 7009,12024 7016,12004 7020,11972 7020,11927 7020,11911 7020,11896 7018,11882 L 6934,12017 C 6935,12019 6935,12022 6936,12024 Z M 6972,11800 C 6956,11800 6944,11811 6936,11831 6929,11851 6925,11883 6925,11927 6925,11941 6925,11954 6926,11965 L 7009,11832 7009,11831 C 7001,11811 6989,11800 6972,11800 Z"/>
       </g>
      </g>
      <g class="com.sun.star.drawing.ClosedBezierShape">
       <g id="id32">
        <rect class="BoundingBox" stroke="none" fill="none" x="17400" y="11746" width="231" height="370"/>
        <path fill="rgb(0,0,0)" stroke="none" d="M 17412,11747 L 17609,11747 17609,11810 17470,11810 17470,11877 C 17476,11875 17482,11873 17489,11872 17495,11871 17502,11870 17510,11870 17546,11870 17575,11882 17597,11904 17619,11927 17630,11956 17630,11992 17630,12030 17618,12060 17594,12082 17570,12104 17537,12115 17495,12115 17480,12115 17464,12114 17448,12111 17433,12109 17416,12105 17400,12100 L 17400,12035 C 17413,12042 17427,12047 17441,12050 17455,12053 17470,12055 17484,12055 17509,12055 17528,12050 17541,12039 17554,12028 17561,12013 17561,11992 17561,11973 17554,11958 17541,11947 17528,11935 17511,11930 17489,11930 17477,11930 17464,11931 17451,11935 17438,11938 17425,11942 17412,11949 L 17412,11747 Z"/>
       </g>
      </g>
      <g class="com.sun.star.drawing.PolyPolygonShape">
       <g id="id33">
        <rect class="BoundingBox" stroke="none" fill="none" x="17675" y="11747" width="273" height="362"/>
        <path fill="rgb(0,0,0)" stroke="none" d="M 17811,12049 L 17875,11747 17947,11747 17861,12108 17762,12108 17676,11747 17748,11747 17811,12049 Z"/>
       </g>
      </g>
      <g class="com.sun.star.drawing.LineShape">
       <g id="id34">
        <rect class="BoundingBox" stroke="none" fill="none" x="17613" y="11070" width="51" height="505"/>
        <path fill="none" stroke="rgb(0,0,0)" stroke-width="49" stroke-linejoin="miter" d="M 17638,11574 L 17638,11070"/>
       </g>
      </g>
      <g class="com.sun.star.drawing.LineShape">
       <g id="id35">
        <rect class="BoundingBox" stroke="none" fill="none" x="17625" y="2050" width="27" height="9021"/>
        <path fill="none" stroke="rgb(0,0,0)" stroke-width="25" stroke-linejoin="miter" d="M 17638,11070 L 17638,10922"/>
        <path fill="none" stroke="rgb(0,0,0)" stroke-width="25" stroke-linejoin="miter" d="M 17638,10799 L 17638,10651"/>
        <path fill="none" stroke="rgb(0,0,0)" stroke-width="25" stroke-linejoin="miter" d="M 17638,10528 L 17638,10380"/>
        <path fill="none" stroke="rgb(0,0,0)" stroke-width="25" stroke-linejoin="miter" d="M 17638,10257 L 17638,10109"/>
        <path fill="none" stroke="rgb(0,0,0)" stroke-width="25" stroke-linejoin="miter" d="M 17638,9986 L 17638,9838"/>
        <path fill="none" stroke="rgb(0,0,0)" stroke-width="25" stroke-linejoin="miter" d="M 17638,9715 L 17638,9567"/>
        <path fill="none" stroke="rgb(0,0,0)" stroke-width="25" stroke-linejoin="miter" d="M 17638,9444 L 17638,9296"/>
        <path fill="none" stroke="rgb(0,0,0)" stroke-width="25" stroke-linejoin="miter" d="M 17638,9173 L 17638,9025"/>
        <path fill="none" stroke="rgb(0,0,0)" stroke-width="25" stroke-linejoin="miter" d="M 17638,8902 L 17638,8754"/>
        <path fill="none" stroke="rgb(0,0,0)" stroke-width="25" stroke-linejoin="miter" d="M 17638,8631 L 17638,8483"/>
        <path fill="none" stroke="rgb(0,0,0)" stroke-width="25" stroke-linejoin="miter" d="M 17638,8360 L 17638,8212"/>
        <path fill="none" stroke="rgb(0,0,0)" stroke-width="25" stroke-linejoin="miter" d="M 17638,8089 L 17638,7941"/>
        <path fill="none" stroke="rgb(0,0,0)" stroke-width="25" stroke-linejoin="miter" d="M 17638,7818 L 17638,7670"/>
        <path fill="none" stroke="rgb(0,0,0)" stroke-width="25" stroke-linejoin="miter" d="M 17638,7547 L 17638,7399"/>
        <path fill="none" stroke="rgb(0,0,0)" stroke-width="25" stroke-linejoin="miter" d="M 17638,7276 L 17638,7128"/>
        <path fill="none" stroke="rgb(0,0,0)" stroke-width="25" stroke-linejoin="miter" d="M 17638,7005 L 17638,6857"/>
        <path fill="none" stroke="rgb(0,0,0)" stroke-width="25" stroke-linejoin="miter" d="M 17638,6734 L 17638,6586"/>
        <path fill="none" stroke="rgb(0,0,0)" stroke-width="25" stroke-linejoin="miter" d="M 17638,6463 L 17638,6315"/>
        <path fill="none" stroke="rgb(0,0,0)" stroke-width="25" stroke-linejoin="miter" d="M 17638,6192 L 17638,6044"/>
        <path fill="none" stroke="rgb(0,0,0)" stroke-width="25" stroke-linejoin="miter" d="M 17638,5921 L 17638,5773"/>
        <path fill="none" stroke="rgb(0,0,0)" stroke-width="25" stroke-linejoin="miter" d="M 17638,5650 L 17638,5502"/>
        <path fill="none" stroke="rgb(0,0,0)" stroke-width="25" stroke-linejoin="miter" d="M 17638,5379 L 17638,5231"/>
        <path fill="none" stroke="rgb(0,0,0)" stroke-width="25" stroke-linejoin="miter" d="M 17638,5108 L 17638,4960"/>
        <path fill="none" stroke="rgb(0,0,0)" stroke-width="25" stroke-linejoin="miter" d="M 17638,4837 L 17638,4689"/>
        <path fill="none" stroke="rgb(0,0,0)" stroke-width="25" stroke-linejoin="miter" d="M 17638,4566 L 17638,4418"/>
        <path fill="none" stroke="rgb(0,0,0)" stroke-width="25" stroke-linejoin="miter" d="M 17638,4295 L 17638,4147"/>
        <path fill="none" stroke="rgb(0,0,0)" stroke-width="25" stroke-linejoin="miter" d="M 17638,4024 L 17638,3876"/>
        <path fill="none" stroke="rgb(0,0,0)" stroke-width="25" stroke-linejoin="miter" d="M 17638,3753 L 17638,3605"/>
        <path fill="none" stroke="rgb(0,0,0)" stroke-width="25" stroke-linejoin="miter" d="M 17638,3482 L 17638,3334"/>
        <path fill="none" stroke="rgb(0,0,0)" stroke-width="25" stroke-linejoin="miter" d="M 17638,3211 L 17638,3063"/>
        <path fill="none" stroke="rgb(0,0,0)" stroke-width="25" stroke-linejoin="miter" d="M 17638,2940 L 17638,2792"/>
        <path fill="none" stroke="rgb(0,0,0)" stroke-width="25" stroke-linejoin="miter" d="M 17638,2669 L 17638,2521"/>
        <path fill="none" stroke="rgb(0,0,0)" stroke-width="25" stroke-linejoin="miter" d="M 17638,2398 L 17638,2250"/>
        <path fill="none" stroke="rgb(0,0,0)" stroke-width="25" stroke-linejoin="miter" d="M 17638,2127 L 17638,2050"/>
       </g>
      </g>
      <g class="com.sun.star.drawing.LineShape">
       <g id="id36">
        <rect class="BoundingBox" stroke="none" fill="none" x="6972" y="2407" width="11102" height="27"/>
        <path fill="none" stroke="rgb(0,0,0)" stroke-width="25" stroke-linejoin="miter" d="M 6972,2420 L 7120,2420"/>
        <path fill="none" stroke="rgb(0,0,0)" stroke-width="25" stroke-linejoin="miter" d="M 7243,2420 L 7391,2420"/>
        <path fill="none" stroke="rgb(0,0,0)" stroke-width="25" stroke-linejoin="miter" d="M 7514,2420 L 7662,2420"/>
        <path fill="none" stroke="rgb(0,0,0)" stroke-width="25" stroke-linejoin="miter" d="M 7785,2420 L 7933,2420"/>
        <path fill="none" stroke="rgb(0,0,0)" stroke-width="25" stroke-linejoin="miter" d="M 8056,2420 L 8204,2420"/>
        <path fill="none" stroke="rgb(0,0,0)" stroke-width="25" stroke-linejoin="miter" d="M 8327,2420 L 8475,2420"/>
        <path fill="none" stroke="rgb(0,0,0)" stroke-width="25" stroke-linejoin="miter" d="M 8598,2420 L 8746,2420"/>
        <path fill="none" stroke="rgb(0,0,0)" stroke-width="25" stroke-linejoin="miter" d="M 8869,2420 L 9017,2420"/>
        <path fill="none" stroke="rgb(0,0,0)" stroke-width="25" stroke-linejoin="miter" d="M 9140,2420 L 9288,2420"/>
        <path fill="none" stroke="rgb(0,0,0)" stroke-width="25" stroke-linejoin="miter" d="M 9411,2420 L 9559,2420"/>
        <path fill="none" stroke="rgb(0,0,0)" stroke-width="25" stroke-linejoin="miter" d="M 9682,2420 L 9830,2420"/>
        <path fill="none" stroke="rgb(0,0,0)" stroke-width="25" stroke-linejoin="miter" d="M 9953,2420 L 10101,2420"/>
        <path fill="none" stroke="rgb(0,0,0)" stroke-width="25" stroke-linejoin="miter" d="M 10224,2420 L 10372,2420"/>
        <path fill="none" stroke="rgb(0,0,0)" stroke-width="25" stroke-linejoin="miter" d="M 10495,2420 L 10643,2420"/>
        <path fill="none" stroke="rgb(0,0,0)" stroke-width="25" stroke-linejoin="miter" d="M 10766,2420 L 10914,2420"/>
        <path fill="none" stroke="rgb(0,0,0)" stroke-width="25" stroke-linejoin="miter" d="M 11037,2420 L 11185,2420"/>
        <path fill="none" stroke="rgb(0,0,0)" stroke-width="25" stroke-linejoin="miter" d="M 11308,2420 L 11456,2420"/>
        <path fill="none" stroke="rgb(0,0,0)" stroke-width="25" stroke-linejoin="miter" d="M 11579,2420 L 11727,2420"/>
        <path fill="none" stroke="rgb(0,0,0)" stroke-width="25" stroke-linejoin="miter" d="M 11850,2420 L 11998,2420"/>
        <path fill="none" stroke="rgb(0,0,0)" stroke-width="25" stroke-linejoin="miter" d="M 12121,2420 L 12269,2420"/>
        <path fill="none" stroke="rgb(0,0,0)" stroke-width="25" stroke-linejoin="miter" d="M 12392,2420 L 12540,2420"/>
        <path fill="none" stroke="rgb(0,0,0)" stroke-width="25" stroke-linejoin="miter" d="M 12663,2420 L 12811,2420"/>
        <path fill="none" stroke="rgb(0,0,0)" stroke-width="25" stroke-linejoin="miter" d="M 12934,2420 L 13082,2420"/>
        <path fill="none" stroke="rgb(0,0,0)" stroke-width="25" stroke-linejoin="miter" d="M 13205,2420 L 13353,2420"/>
        <path fill="none" stroke="rgb(0,0,0)" stroke-width="25" stroke-linejoin="miter" d="M 13476,2420 L 13624,2420"/>
        <path fill="none" stroke="rgb(0,0,0)" stroke-width="25" stroke-linejoin="miter" d="M 13747,2420 L 13895,2420"/>
        <path fill="none" stroke="rgb(0,0,0)" stroke-width="25" stroke-linejoin="miter" d="M 14018,2420 L 14166,2420"/>
        <path fill="none" stroke="rgb(0,0,0)" stroke-width="25" stroke-linejoin="miter" d="M 14289,2420 L 14437,2420"/>
        <path fill="none" stroke="rgb(0,0,0)" stroke-width="25" stroke-linejoin="miter" d="M 14560,2420 L 14708,2420"/>
        <path fill="none" stroke="rgb(0,0,0)" stroke-width="25" stroke-linejoin="miter" d="M 14831,2420 L 14979,2420"/>
        <path fill="none" stroke="rgb(0,0,0)" stroke-width="25" stroke-linejoin="miter" d="M 15102,2420 L 15250,2420"/>
        <path fill="none" stroke="rgb(0,0,0)" stroke-width="25" stroke-linejoin="miter" d="M 15373,2420 L 15521,2420"/>
        <path fill="none" stroke="rgb(0,0,0)" stroke-width="25" stroke-linejoin="miter" d="M 15644,2420 L 15792,2420"/>
        <path fill="none" stroke="rgb(0,0,0)" stroke-width="25" stroke-linejoin="miter" d="M 15915,2420 L 16063,2420"/>
        <path fill="none" stroke="rgb(0,0,0)" stroke-width="25" stroke-linejoin="miter" d="M 16186,2420 L 16334,2420"/>
        <path fill="none" stroke="rgb(0,0,0)" stroke-width="25" stroke-linejoin="miter" d="M 16457,2420 L 16605,2420"/>
        <path fill="none" stroke="rgb(0,0,0)" stroke-width="25" stroke-linejoin="miter" d="M 16728,2420 L 16876,2420"/>
        <path fill="none" stroke="rgb(0,0,0)" stroke-width="25" stroke-linejoin="miter" d="M 16999,2420 L 17147,2420"/>
        <path fill="none" stroke="rgb(0,0,0)" stroke-width="25" stroke-linejoin="miter" d="M 17270,2420 L 17418,2420"/>
        <path fill="none" stroke="rgb(0,0,0)" stroke-width="25" stroke-linejoin="miter" d="M 17541,2420 L 17689,2420"/>
        <path fill="none" stroke="rgb(0,0,0)" stroke-width="25" stroke-linejoin="miter" d="M 17812,2420 L 17960,2420"/>
       </g>
      </g>
      <g class="com.sun.star.drawing.LineShape">
       <g id="id37">
        <rect class="BoundingBox" stroke="none" fill="none" x="6787" y="2395" width="371" height="51"/>
        <path fill="none" stroke="rgb(0,0,0)" stroke-width="49" stroke-linejoin="miter" d="M 6787,2420 L 7157,2420"/>
       </g>
      </g>
      <g class="com.sun.star.drawing.ClosedBezierShape">
       <g id="id38">
        <rect class="BoundingBox" stroke="none" fill="none" x="0" y="2205" width="132" height="442"/>
        <path fill="rgb(0,0,0)" stroke="none" d="M 131,2205 C 110,2244 94,2281 84,2317 73,2353 68,2389 68,2425 68,2461 73,2497 84,2533 94,2570 110,2607 131,2646 L 76,2646 C 50,2609 31,2572 19,2536 6,2500 0,2463 0,2425 0,2388 6,2351 19,2315 31,2278 50,2242 76,2205 L 131,2205 Z"/>
       </g>
      </g>
      <g class="com.sun.star.drawing.PolyPolygonShape">
       <g id="id39">
        <rect class="BoundingBox" stroke="none" fill="none" x="249" y="2219" width="231" height="362"/>
        <path fill="rgb(0,0,0)" stroke="none" d="M 250,2517 L 330,2517 330,2283 256,2301 256,2237 330,2219 399,2219 399,2517 479,2517 479,2580 250,2580 250,2517 Z"/>
       </g>
      </g>
      <g class="com.sun.star.drawing.PolyPolygonShape">
       <g id="id40">
        <rect class="BoundingBox" stroke="none" fill="none" x="548" y="2219" width="230" height="362"/>
        <path fill="rgb(0,0,0)" stroke="none" d="M 548,2517 L 628,2517 628,2283 554,2301 554,2237 628,2219 697,2219 697,2517 777,2517 777,2580 548,2580 548,2517 Z"/>
       </g>
      </g>
      <g class="com.sun.star.drawing.PolyPolygonShape">
       <g id="id41">
        <rect class="BoundingBox" stroke="none" fill="none" x="844" y="2219" width="231" height="362"/>
        <path fill="rgb(0,0,0)" stroke="none" d="M 845,2517 L 925,2517 925,2283 851,2301 851,2237 925,2219 994,2219 994,2517 1074,2517 1074,2580 845,2580 845,2517 Z"/>
       </g>
      </g>
      <g class="com.sun.star.drawing.PolyPolygonShape">
       <g id="id42">
        <rect class="BoundingBox" stroke="none" fill="none" x="1141" y="2219" width="231" height="362"/>
        <path fill="rgb(0,0,0)" stroke="none" d="M 1142,2517 L 1222,2517 1222,2283 1148,2301 1148,2237 1222,2219 1291,2219 1291,2517 1371,2517 1371,2580 1142,2580 1142,2517 Z"/>
       </g>
      </g>
      <g class="com.sun.star.drawing.PolyPolygonShape">
       <g id="id43">
        <rect class="BoundingBox" stroke="none" fill="none" x="1440" y="2219" width="230" height="362"/>
        <path fill="rgb(0,0,0)" stroke="none" d="M 1440,2517 L 1520,2517 1520,2283 1446,2301 1446,2237 1520,2219 1589,2219 1589,2517 1669,2517 1669,2580 1440,2580 1440,2517 Z"/>
       </g>
      </g>
      <g class="com.sun.star.drawing.PolyPolygonShape">
       <g id="id44">
        <rect class="BoundingBox" stroke="none" fill="none" x="1737" y="2219" width="230" height="362"/>
        <path fill="rgb(0,0,0)" stroke="none" d="M 1737,2517 L 1817,2517 1817,2283 1743,2301 1743,2237 1817,2219 1886,2219 1886,2517 1966,2517 1966,2580 1737,2580 1737,2517 Z"/>
       </g>
      </g>
      <g class="com.sun.star.drawing.PolyPolygonShape">
       <g id="id45">
        <rect class="BoundingBox" stroke="none" fill="none" x="2034" y="2219" width="230" height="362"/>
        <path fill="rgb(0,0,0)" stroke="none" d="M 2034,2517 L 2114,2517 2114,2283 2040,2301 2040,2237 2114,2219 2183,2219 2183,2517 2263,2517 2263,2580 2034,2580 2034,2517 Z"/>
       </g>
      </g>
      <g class="com.sun.star.drawing.PolyPolygonShape">
       <g id="id46">
        <rect class="BoundingBox" stroke="none" fill="none" x="2332" y="2219" width="230" height="362"/>
        <path fill="rgb(0,0,0)" stroke="none" d="M 2332,2517 L 2412,2517 2412,2283 2338,2301 2338,2237 2412,2219 2481,2219 2481,2517 2561,2517 2561,2580 2332,2580 2332,2517 Z"/>
       </g>
      </g>
      <g class="com.sun.star.drawing.PolyPolygonShape">
       <g id="id47">
        <rect class="BoundingBox" stroke="none" fill="none" x="2629" y="2219" width="230" height="362"/>
        <path fill="rgb(0,0,0)" stroke="none" d="M 2629,2517 L 2709,2517 2709,2283 2635,2301 2635,2237 2709,2219 2778,2219 2778,2517 2858,2517 2858,2580 2629,2580 2629,2517 Z"/>
       </g>
      </g>
      <g class="com.sun.star.drawing.PolyPolygonShape">
       <g id="id48">
        <rect class="BoundingBox" stroke="none" fill="none" x="2926" y="2219" width="230" height="362"/>
        <path fill="rgb(0,0,0)" stroke="none" d="M 2926,2517 L 3006,2517 3006,2283 2932,2301 2932,2237 3006,2219 3075,2219 3075,2517 3155,2517 3155,2580 2926,2580 2926,2517 Z"/>
       </g>
      </g>
      <g class="com.sun.star.drawing.ClosedBezierShape">
       <g id="id49">
        <rect class="BoundingBox" stroke="none" fill="none" x="3252" y="2205" width="133" height="442"/>
        <path fill="rgb(0,0,0)" stroke="none" d="M 3253,2205 L 3308,2205 C 3334,2242 3353,2278 3366,2315 3378,2351 3384,2388 3384,2425 3384,2463 3378,2500 3366,2536 3353,2572 3334,2609 3308,2646 L 3253,2646 C 3274,2607 3290,2570 3301,2533 3311,2497 3316,2461 3316,2425 3316,2389 3311,2353 3301,2317 3290,2281 3274,2244 3253,2205 Z"/>
       </g>
      </g>
      <g class="com.sun.star.drawing.ClosedBezierShape">
       <g id="id50">
        <rect class="BoundingBox" stroke="none" fill="none" x="3496" y="2318" width="165" height="264"/>
        <path fill="rgb(0,0,0)" stroke="none" d="M 3551,2536 L 3660,2536 3660,2581 3496,2581 3496,2537 3524,2508 C 3557,2473 3577,2451 3584,2443 3592,2433 3599,2425 3602,2417 3606,2409 3608,2402 3608,2394 3608,2383 3605,2374 3598,2368 3591,2361 3581,2358 3568,2358 3559,2358 3549,2360 3537,2364 3526,2367 3514,2372 3502,2379 L 3502,2332 C 3514,2327 3526,2324 3538,2322 3550,2319 3561,2318 3572,2318 3599,2318 3621,2324 3636,2337 3652,2350 3660,2367 3660,2389 3660,2399 3658,2409 3655,2418 3651,2427 3646,2436 3637,2447 3631,2455 3614,2473 3587,2500 3572,2515 3560,2527 3551,2536 Z"/>
       </g>
      </g>
      <g class="com.sun.star.drawing.PolyPolygonShape">
       <g id="id51">
        <rect class="BoundingBox" stroke="none" fill="none" x="3922" y="2340" width="257" height="170"/>
        <path fill="rgb(0,0,0)" stroke="none" d="M 3922,2451 L 4178,2451 4178,2509 3922,2509 3922,2451 Z M 3922,2341 L 4178,2341 4178,2398 3922,2398 3922,2341 Z"/>
       </g>
      </g>
      <g class="com.sun.star.drawing.ClosedBezierShape">
       <g id="id52">
        <rect class="BoundingBox" stroke="none" fill="none" x="4503" y="2205" width="132" height="442"/>
        <path fill="rgb(0,0,0)" stroke="none" d="M 4634,2205 C 4613,2244 4597,2281 4587,2317 4576,2353 4571,2389 4571,2425 4571,2461 4576,2497 4587,2533 4597,2570 4613,2607 4634,2646 L 4579,2646 C 4553,2609 4534,2572 4522,2536 4509,2500 4503,2463 4503,2425 4503,2388 4509,2351 4522,2315 4534,2278 4553,2242 4579,2205 L 4634,2205 Z"/>
       </g>
      </g>
      <g class="com.sun.star.drawing.PolyPolygonShape">
       <g id="id53">
        <rect class="BoundingBox" stroke="none" fill="none" x="4753" y="2219" width="230" height="362"/>
        <path fill="rgb(0,0,0)" stroke="none" d="M 4753,2517 L 4833,2517 4833,2283 4759,2301 4759,2237 4833,2219 4902,2219 4902,2517 4982,2517 4982,2580 4753,2580 4753,2517 Z"/>
       </g>
      </g>
      <g class="com.sun.star.drawing.ClosedBezierShape">
       <g id="id54">
        <rect class="BoundingBox" stroke="none" fill="none" x="5035" y="2213" width="240" height="376"/>
        <path fill="rgb(0,0,0)" stroke="none" d="M 5035,2400 C 5035,2338 5045,2291 5065,2260 5085,2229 5115,2213 5154,2213 5194,2213 5224,2229 5244,2260 5264,2291 5274,2338 5274,2400 5274,2463 5264,2510 5244,2541 5224,2572 5194,2588 5154,2588 5115,2588 5085,2572 5065,2541 5045,2510 5035,2463 5035,2400 Z M 5118,2497 C 5126,2517 5138,2527 5154,2527 5171,2527 5183,2517 5191,2497 5198,2477 5202,2445 5202,2400 5202,2384 5202,2369 5200,2355 L 5116,2490 C 5117,2492 5118,2495 5118,2497 Z M 5154,2273 C 5138,2273 5126,2284 5118,2304 5111,2324 5107,2356 5107,2400 5107,2414 5107,2427 5108,2438 L 5191,2305 5191,2304 C 5183,2284 5171,2273 5154,2273 Z"/>
       </g>
      </g>
      <g class="com.sun.star.drawing.ClosedBezierShape">
       <g id="id55">
        <rect class="BoundingBox" stroke="none" fill="none" x="5330" y="2213" width="231" height="369"/>
        <path fill="rgb(0,0,0)" stroke="none" d="M 5407,2518 L 5560,2518 5560,2581 5330,2581 5330,2520 5369,2479 C 5415,2430 5443,2400 5453,2388 5465,2374 5473,2362 5479,2351 5484,2341 5487,2330 5487,2320 5487,2304 5482,2291 5472,2282 5462,2274 5448,2269 5431,2269 5418,2269 5403,2272 5388,2277 5372,2282 5355,2289 5338,2299 L 5338,2232 C 5355,2226 5372,2221 5388,2218 5405,2215 5421,2213 5436,2213 5474,2213 5504,2222 5526,2240 5548,2258 5559,2282 5559,2313 5559,2327 5557,2340 5552,2353 5547,2365 5539,2379 5527,2394 5519,2405 5495,2430 5457,2468 5436,2489 5420,2505 5407,2518 Z"/>
       </g>
      </g>
      <g class="com.sun.star.drawing.ClosedBezierShape">
       <g id="id56">
        <rect class="BoundingBox" stroke="none" fill="none" x="5630" y="2213" width="237" height="376"/>
        <path fill="rgb(0,0,0)" stroke="none" d="M 5733,2419 L 5694,2419 5694,2356 5733,2356 C 5750,2356 5764,2353 5774,2346 5784,2339 5789,2329 5789,2316 5789,2303 5784,2292 5774,2285 5764,2277 5750,2273 5733,2273 5719,2273 5705,2275 5689,2279 5674,2282 5658,2287 5641,2293 L 5641,2228 C 5658,2223 5674,2220 5690,2217 5706,2214 5722,2213 5737,2213 5775,2213 5804,2221 5826,2238 5847,2255 5858,2277 5858,2307 5858,2328 5852,2346 5839,2359 5827,2373 5809,2382 5787,2386 5813,2390 5832,2401 5846,2417 5859,2433 5866,2454 5866,2480 5866,2515 5855,2542 5832,2560 5810,2578 5777,2588 5735,2588 5716,2588 5698,2586 5681,2583 5663,2580 5646,2575 5630,2570 L 5630,2503 C 5645,2511 5662,2517 5679,2521 5697,2525 5715,2527 5735,2527 5754,2527 5769,2522 5781,2513 5792,2504 5798,2492 5798,2477 5798,2459 5792,2444 5781,2434 5769,2424 5753,2419 5733,2419 Z"/>
       </g>
      </g>
      <g class="com.sun.star.drawing.ClosedBezierShape">
       <g id="id57">
        <rect class="BoundingBox" stroke="none" fill="none" x="5972" y="2205" width="132" height="442"/>
        <path fill="rgb(0,0,0)" stroke="none" d="M 5972,2205 L 6027,2205 C 6053,2242 6072,2278 6085,2315 6097,2351 6103,2388 6103,2425 6103,2463 6097,2500 6085,2536 6072,2572 6053,2609 6027,2646 L 5972,2646 C 5993,2607 6009,2570 6020,2533 6030,2497 6035,2461 6035,2425 6035,2389 6030,2353 6020,2317 6009,2281 5993,2244 5972,2205 Z"/>
       </g>
      </g>
      <g class="com.sun.star.drawing.PolyPolygonShape">
       <g id="id58">
        <rect class="BoundingBox" stroke="none" fill="none" x="6227" y="2322" width="165" height="259"/>
        <path fill="rgb(0,0,0)" stroke="none" d="M 6227,2535 L 6284,2535 6284,2368 6231,2381 6231,2335 6285,2322 6334,2322 6334,2535 6391,2535 6391,2580 6227,2580 6227,2535 Z"/>
       </g>
      </g>
      <g class="com.sun.star.drawing.ClosedBezierShape">
       <g id="id59">
        <rect class="BoundingBox" stroke="none" fill="none" x="6427" y="2317" width="173" height="270"/>
        <path fill="rgb(0,0,0)" stroke="none" d="M 6428,2452 C 6428,2407 6435,2374 6449,2351 6464,2329 6485,2318 6513,2318 6542,2318 6563,2329 6578,2351 6592,2374 6599,2407 6599,2452 6599,2497 6592,2530 6578,2552 6563,2575 6542,2586 6513,2586 6485,2586 6464,2575 6449,2552 6435,2530 6428,2497 6428,2452 Z M 6488,2521 C 6493,2535 6502,2543 6513,2543 6525,2543 6534,2535 6539,2521 6545,2507 6548,2484 6548,2452 6548,2440 6547,2429 6546,2420 L 6486,2516 C 6486,2518 6487,2519 6488,2521 Z M 6513,2361 C 6502,2361 6493,2368 6488,2383 6482,2397 6479,2420 6479,2452 6479,2462 6480,2471 6480,2479 L 6540,2384 C 6540,2384 6540,2383 6539,2383 6534,2368 6525,2361 6513,2361 Z"/>
       </g>
      </g>
      <g class="com.sun.star.drawing.ClosedBezierShape">
       <g id="id60">
        <rect class="BoundingBox" stroke="none" fill="none" x="727" y="11013" width="132" height="442"/>
        <path fill="rgb(0,0,0)" stroke="none" d="M 858,11013 C 837,11052 821,11089 811,11125 800,11161 795,11197 795,11233 795,11269 800,11305 811,11341 821,11378 837,11415 858,11454 L 803,11454 C 777,11417 758,11380 746,11344 733,11308 727,11271 727,11233 727,11196 733,11159 746,11123 758,11086 777,11050 803,11013 L 858,11013 Z"/>
       </g>
      </g>
      <g class="com.sun.star.drawing.ClosedBezierShape">
       <g id="id61">
        <rect class="BoundingBox" stroke="none" fill="none" x="962" y="11021" width="240" height="376"/>
        <path fill="rgb(0,0,0)" stroke="none" d="M 962,11208 C 962,11146 972,11099 992,11068 1012,11037 1041,11021 1081,11021 1121,11021 1151,11037 1171,11068 1191,11099 1201,11146 1201,11208 1201,11271 1191,11318 1171,11349 1151,11380 1121,11396 1081,11396 1041,11396 1012,11380 992,11349 972,11318 962,11271 962,11208 Z M 1045,11305 C 1053,11325 1065,11335 1081,11335 1098,11335 1110,11325 1118,11305 1125,11285 1129,11253 1129,11208 1129,11192 1129,11177 1127,11163 L 1043,11298 C 1044,11300 1044,11303 1045,11305 Z M 1081,11081 C 1065,11081 1053,11092 1045,11112 1038,11132 1034,11164 1034,11208 1034,11222 1034,11235 1035,11246 L 1118,11113 1118,11112 C 1110,11092 1098,11081 1081,11081 Z"/>
       </g>
      </g>
      <g class="com.sun.star.drawing.ClosedBezierShape">
       <g id="id62">
        <rect class="BoundingBox" stroke="none" fill="none" x="1259" y="11021" width="240" height="376"/>
        <path fill="rgb(0,0,0)" stroke="none" d="M 1259,11208 C 1259,11146 1269,11099 1289,11068 1309,11037 1339,11021 1378,11021 1418,11021 1448,11037 1468,11068 1488,11099 1498,11146 1498,11208 1498,11271 1488,11318 1468,11349 1448,11380 1418,11396 1378,11396 1339,11396 1309,11380 1289,11349 1269,11318 1259,11271 1259,11208 Z M 1342,11305 C 1350,11325 1362,11335 1378,11335 1395,11335 1407,11325 1415,11305 1422,11285 1426,11253 1426,11208 1426,11192 1426,11177 1424,11163 L 1340,11298 C 1341,11300 1342,11303 1342,11305 Z M 1378,11081 C 1362,11081 1350,11092 1342,11112 1335,11132 1331,11164 1331,11208 1331,11222 1331,11235 1332,11246 L 1415,11113 1415,11112 C 1407,11092 1395,11081 1378,11081 Z"/>
       </g>
      </g>
      <g class="com.sun.star.drawing.ClosedBezierShape">
       <g id="id63">
        <rect class="BoundingBox" stroke="none" fill="none" x="1555" y="11021" width="241" height="376"/>
        <path fill="rgb(0,0,0)" stroke="none" d="M 1556,11208 C 1556,11146 1566,11099 1586,11068 1606,11037 1636,11021 1675,11021 1715,11021 1745,11037 1765,11068 1785,11099 1795,11146 1795,11208 1795,11271 1785,11318 1765,11349 1745,11380 1715,11396 1675,11396 1636,11396 1606,11380 1586,11349 1566,11318 1556,11271 1556,11208 Z M 1639,11305 C 1647,11325 1659,11335 1675,11335 1692,11335 1704,11325 1712,11305 1719,11285 1723,11253 1723,11208 1723,11192 1723,11177 1721,11163 L 1637,11298 C 1638,11300 1638,11303 1639,11305 Z M 1675,11081 C 1659,11081 1647,11092 1639,11112 1632,11132 1628,11164 1628,11208 1628,11222 1628,11235 1629,11246 L 1712,11113 1712,11112 C 1704,11092 1692,11081 1675,11081 Z"/>
       </g>
      </g>
      <g class="com.sun.star.drawing.ClosedBezierShape">
       <g id="id64">
        <rect class="BoundingBox" stroke="none" fill="none" x="1853" y="11021" width="241" height="376"/>
        <path fill="rgb(0,0,0)" stroke="none" d="M 1854,11208 C 1854,11146 1864,11099 1884,11068 1904,11037 1933,11021 1973,11021 2013,11021 2043,11037 2063,11068 2083,11099 2093,11146 2093,11208 2093,11271 2083,11318 2063,11349 2043,11380 2013,11396 1973,11396 1933,11396 1904,11380 1884,11349 1864,11318 1854,11271 1854,11208 Z M 1937,11305 C 1945,11325 1957,11335 1973,11335 1990,11335 2002,11325 2010,11305 2017,11285 2021,11253 2021,11208 2021,11192 2021,11177 2019,11163 L 1935,11298 C 1936,11300 1936,11303 1937,11305 Z M 1973,11081 C 1957,11081 1945,11092 1937,11112 1930,11132 1926,11164 1926,11208 1926,11222 1926,11235 1927,11246 L 2010,11113 2010,11112 C 2002,11092 1990,11081 1973,11081 Z"/>
       </g>
      </g>
      <g class="com.sun.star.drawing.ClosedBezierShape">
       <g id="id65">
        <rect class="BoundingBox" stroke="none" fill="none" x="2151" y="11021" width="240" height="376"/>
        <path fill="rgb(0,0,0)" stroke="none" d="M 2151,11208 C 2151,11146 2161,11099 2181,11068 2201,11037 2231,11021 2270,11021 2310,11021 2340,11037 2360,11068 2380,11099 2390,11146 2390,11208 2390,11271 2380,11318 2360,11349 2340,11380 2310,11396 2270,11396 2231,11396 2201,11380 2181,11349 2161,11318 2151,11271 2151,11208 Z M 2234,11305 C 2242,11325 2254,11335 2270,11335 2287,11335 2299,11325 2307,11305 2314,11285 2318,11253 2318,11208 2318,11192 2318,11177 2316,11163 L 2232,11298 C 2233,11300 2234,11303 2234,11305 Z M 2270,11081 C 2254,11081 2242,11092 2234,11112 2227,11132 2223,11164 2223,11208 2223,11222 2223,11235 2224,11246 L 2307,11113 2307,11112 C 2299,11092 2287,11081 2270,11081 Z"/>
       </g>
      </g>
      <g class="com.sun.star.drawing.ClosedBezierShape">
       <g id="id66">
        <rect class="BoundingBox" stroke="none" fill="none" x="2448" y="11021" width="240" height="376"/>
        <path fill="rgb(0,0,0)" stroke="none" d="M 2448,11208 C 2448,11146 2458,11099 2478,11068 2498,11037 2528,11021 2567,11021 2607,11021 2637,11037 2657,11068 2677,11099 2687,11146 2687,11208 2687,11271 2677,11318 2657,11349 2637,11380 2607,11396 2567,11396 2528,11396 2498,11380 2478,11349 2458,11318 2448,11271 2448,11208 Z M 2531,11305 C 2539,11325 2551,11335 2567,11335 2584,11335 2596,11325 2604,11305 2611,11285 2615,11253 2615,11208 2615,11192 2615,11177 2613,11163 L 2529,11298 C 2530,11300 2530,11303 2531,11305 Z M 2567,11081 C 2551,11081 2539,11092 2531,11112 2524,11132 2520,11164 2520,11208 2520,11222 2520,11235 2521,11246 L 2604,11113 2604,11112 C 2596,11092 2584,11081 2567,11081 Z"/>
       </g>
      </g>
      <g class="com.sun.star.drawing.ClosedBezierShape">
       <g id="id67">
        <rect class="BoundingBox" stroke="none" fill="none" x="2745" y="11021" width="241" height="376"/>
        <path fill="rgb(0,0,0)" stroke="none" d="M 2746,11208 C 2746,11146 2756,11099 2776,11068 2796,11037 2825,11021 2865,11021 2905,11021 2935,11037 2955,11068 2975,11099 2985,11146 2985,11208 2985,11271 2975,11318 2955,11349 2935,11380 2905,11396 2865,11396 2825,11396 2796,11380 2776,11349 2756,11318 2746,11271 2746,11208 Z M 2829,11305 C 2837,11325 2849,11335 2865,11335 2882,11335 2894,11325 2902,11305 2909,11285 2913,11253 2913,11208 2913,11192 2913,11177 2911,11163 L 2827,11298 C 2828,11300 2828,11303 2829,11305 Z M 2865,11081 C 2849,11081 2837,11092 2829,11112 2822,11132 2818,11164 2818,11208 2818,11222 2818,11235 2819,11246 L 2902,11113 2902,11112 C 2894,11092 2882,11081 2865,11081 Z"/>
       </g>
      </g>
      <g class="com.sun.star.drawing.ClosedBezierShape">
       <g id="id68">
        <rect class="BoundingBox" stroke="none" fill="none" x="3043" y="11021" width="240" height="376"/>
        <path fill="rgb(0,0,0)" stroke="none" d="M 3043,11208 C 3043,11146 3053,11099 3073,11068 3093,11037 3122,11021 3162,11021 3202,11021 3232,11037 3252,11068 3272,11099 3282,11146 3282,11208 3282,11271 3272,11318 3252,11349 3232,11380 3202,11396 3162,11396 3122,11396 3093,11380 3073,11349 3053,11318 3043,11271 3043,11208 Z M 3126,11305 C 3134,11325 3146,11335 3162,11335 3179,11335 3191,11325 3199,11305 3206,11285 3210,11253 3210,11208 3210,11192 3210,11177 3208,11163 L 3124,11298 C 3125,11300 3125,11303 3126,11305 Z M 3162,11081 C 3146,11081 3134,11092 3126,11112 3119,11132 3115,11164 3115,11208 3115,11222 3115,11235 3116,11246 L 3199,11113 3199,11112 C 3191,11092 3179,11081 3162,11081 Z"/>
       </g>
      </g>
      <g class="com.sun.star.drawing.ClosedBezierShape">
       <g id="id69">
        <rect class="BoundingBox" stroke="none" fill="none" x="3339" y="11021" width="241" height="376"/>
        <path fill="rgb(0,0,0)" stroke="none" d="M 3340,11208 C 3340,11146 3350,11099 3370,11068 3390,11037 3420,11021 3459,11021 3499,11021 3529,11037 3549,11068 3569,11099 3579,11146 3579,11208 3579,11271 3569,11318 3549,11349 3529,11380 3499,11396 3459,11396 3420,11396 3390,11380 3370,11349 3350,11318 3340,11271 3340,11208 Z M 3423,11305 C 3431,11325 3443,11335 3459,11335 3476,11335 3488,11325 3496,11305 3503,11285 3507,11253 3507,11208 3507,11192 3507,11177 3505,11163 L 3421,11298 C 3422,11300 3423,11303 3423,11305 Z M 3459,11081 C 3443,11081 3431,11092 3423,11112 3416,11132 3412,11164 3412,11208 3412,11222 3412,11235 3413,11246 L 3496,11113 3496,11112 C 3488,11092 3476,11081 3459,11081 Z"/>
       </g>
      </g>
      <g class="com.sun.star.drawing.ClosedBezierShape">
       <g id="id70">
        <rect class="BoundingBox" stroke="none" fill="none" x="3638" y="11021" width="240" height="376"/>
        <path fill="rgb(0,0,0)" stroke="none" d="M 3638,11208 C 3638,11146 3648,11099 3668,11068 3688,11037 3718,11021 3757,11021 3797,11021 3827,11037 3847,11068 3867,11099 3877,11146 3877,11208 3877,11271 3867,11318 3847,11349 3827,11380 3797,11396 3757,11396 3718,11396 3688,11380 3668,11349 3648,11318 3638,11271 3638,11208 Z M 3721,11305 C 3729,11325 3741,11335 3757,11335 3774,11335 3786,11325 3794,11305 3801,11285 3805,11253 3805,11208 3805,11192 3805,11177 3803,11163 L 3719,11298 C 3720,11300 3720,11303 3721,11305 Z M 3757,11081 C 3741,11081 3729,11092 3721,11112 3714,11132 3710,11164 3710,11208 3710,11222 3710,11235 3711,11246 L 3794,11113 3794,11112 C 3786,11092 3774,11081 3757,11081 Z"/>
       </g>
      </g>
      <g class="com.sun.star.drawing.ClosedBezierShape">
       <g id="id71">
        <rect class="BoundingBox" stroke="none" fill="none" x="3979" y="11013" width="133" height="442"/>
        <path fill="rgb(0,0,0)" stroke="none" d="M 3980,11013 L 4035,11013 C 4061,11050 4080,11086 4093,11123 4105,11159 4111,11196 4111,11233 4111,11271 4105,11308 4093,11344 4080,11380 4061,11417 4035,11454 L 3980,11454 C 4001,11415 4017,11378 4028,11341 4038,11305 4043,11269 4043,11233 4043,11197 4038,11161 4028,11125 4017,11089 4001,11052 3980,11013 Z"/>
       </g>
      </g>
      <g class="com.sun.star.drawing.ClosedBezierShape">
       <g id="id72">
        <rect class="BoundingBox" stroke="none" fill="none" x="4223" y="11125" width="165" height="264"/>
        <path fill="rgb(0,0,0)" stroke="none" d="M 4278,11343 L 4387,11343 4387,11388 4223,11388 4223,11344 4251,11315 C 4284,11280 4304,11258 4311,11250 4319,11240 4326,11232 4329,11224 4333,11216 4335,11209 4335,11201 4335,11190 4332,11181 4325,11175 4318,11168 4308,11165 4295,11165 4286,11165 4276,11167 4264,11171 4253,11174 4241,11179 4229,11186 L 4229,11139 C 4241,11134 4253,11131 4265,11129 4277,11126 4288,11125 4299,11125 4326,11125 4348,11131 4363,11144 4379,11157 4387,11174 4387,11196 4387,11206 4385,11216 4382,11225 4378,11234 4373,11243 4364,11254 4358,11262 4341,11280 4314,11307 4299,11322 4287,11334 4278,11343 Z"/>
       </g>
      </g>
      <g class="com.sun.star.drawing.PolyPolygonShape">
       <g id="id73">
        <rect class="BoundingBox" stroke="none" fill="none" x="4649" y="11149" width="257" height="169"/>
        <path fill="rgb(0,0,0)" stroke="none" d="M 4649,11259 L 4905,11259 4905,11317 4649,11317 4649,11259 Z M 4649,11149 L 4905,11149 4905,11206 4649,11206 4649,11149 Z"/>
       </g>
      </g>
      <g class="com.sun.star.drawing.ClosedBezierShape">
       <g id="id74">
        <rect class="BoundingBox" stroke="none" fill="none" x="5230" y="11013" width="132" height="442"/>
        <path fill="rgb(0,0,0)" stroke="none" d="M 5361,11013 C 5340,11052 5324,11089 5314,11125 5303,11161 5298,11197 5298,11233 5298,11269 5303,11305 5314,11341 5324,11378 5340,11415 5361,11454 L 5306,11454 C 5280,11417 5261,11380 5249,11344 5236,11308 5230,11271 5230,11233 5230,11196 5236,11159 5249,11123 5261,11086 5280,11050 5306,11013 L 5361,11013 Z"/>
       </g>
      </g>
      <g class="com.sun.star.drawing.ClosedBezierShape">
       <g id="id75">
        <rect class="BoundingBox" stroke="none" fill="none" x="5463" y="11021" width="241" height="376"/>
        <path fill="rgb(0,0,0)" stroke="none" d="M 5464,11208 C 5464,11146 5474,11099 5494,11068 5514,11037 5543,11021 5583,11021 5623,11021 5653,11037 5673,11068 5693,11099 5703,11146 5703,11208 5703,11271 5693,11318 5673,11349 5653,11380 5623,11396 5583,11396 5543,11396 5514,11380 5494,11349 5474,11318 5464,11271 5464,11208 Z M 5547,11305 C 5555,11325 5567,11335 5583,11335 5600,11335 5612,11325 5620,11305 5627,11285 5631,11253 5631,11208 5631,11192 5631,11177 5629,11163 L 5545,11298 C 5546,11300 5546,11303 5547,11305 Z M 5583,11081 C 5567,11081 5555,11092 5547,11112 5540,11132 5536,11164 5536,11208 5536,11222 5536,11235 5537,11246 L 5620,11113 5620,11112 C 5612,11092 5600,11081 5583,11081 Z"/>
       </g>
      </g>
      <g class="com.sun.star.drawing.ClosedBezierShape">
       <g id="id76">
        <rect class="BoundingBox" stroke="none" fill="none" x="5806" y="11013" width="132" height="442"/>
        <path fill="rgb(0,0,0)" stroke="none" d="M 5806,11013 L 5861,11013 C 5887,11050 5906,11086 5919,11123 5931,11159 5937,11196 5937,11233 5937,11271 5931,11308 5919,11344 5906,11380 5887,11417 5861,11454 L 5806,11454 C 5827,11415 5843,11378 5854,11341 5864,11305 5869,11269 5869,11233 5869,11197 5864,11161 5854,11125 5843,11089 5827,11052 5806,11013 Z"/>
       </g>
      </g>
      <g class="com.sun.star.drawing.PolyPolygonShape">
       <g id="id77">
        <rect class="BoundingBox" stroke="none" fill="none" x="6062" y="11130" width="166" height="259"/>
        <path fill="rgb(0,0,0)" stroke="none" d="M 6062,11343 L 6119,11343 6119,11176 6066,11189 6066,11143 6120,11130 6169,11130 6169,11343 6226,11343 6226,11388 6062,11388 6062,11343 Z"/>
       </g>
      </g>
      <g class="com.sun.star.drawing.ClosedBezierShape">
       <g id="id78">
        <rect class="BoundingBox" stroke="none" fill="none" x="6263" y="11124" width="172" height="270"/>
        <path fill="rgb(0,0,0)" stroke="none" d="M 6263,11259 C 6263,11214 6270,11181 6284,11158 6299,11136 6320,11125 6348,11125 6377,11125 6398,11136 6413,11158 6427,11181 6434,11214 6434,11259 6434,11304 6427,11337 6413,11359 6398,11382 6377,11393 6348,11393 6320,11393 6299,11382 6284,11359 6270,11337 6263,11304 6263,11259 Z M 6323,11328 C 6328,11342 6337,11350 6348,11350 6360,11350 6369,11342 6374,11328 6380,11314 6383,11291 6383,11259 6383,11247 6382,11236 6381,11227 L 6321,11323 C 6321,11325 6322,11326 6323,11328 Z M 6348,11168 C 6337,11168 6328,11175 6323,11190 6317,11204 6314,11227 6314,11259 6314,11269 6315,11278 6315,11286 L 6375,11191 C 6375,11191 6375,11190 6374,11190 6369,11175 6360,11168 6348,11168 Z"/>
       </g>
      </g>
     </g>
    </g>
   </g>
  </g>
 </g>
</svg>