<?xml version="1.0" encoding="UTF-8"?>
<!DOCTYPE svg PUBLIC "-//W3C//DTD SVG 1.1//EN" "http://www.w3.org/Graphics/SVG/1.1/DTD/svg11.dtd">
<svg version="1.2" width="202.88mm" height="88.35mm" viewBox="0 0 20288 8835" preserveAspectRatio="xMidYMid" fill-rule="evenodd" stroke-width="28.222" stroke-linejoin="round" xmlns="http://www.w3.org/2000/svg" xmlns:ooo="http://xml.openoffice.org/svg/export" xmlns:xlink="http://www.w3.org/1999/xlink" xmlns:presentation="http://sun.com/xmlns/staroffice/presentation" xmlns:smil="http://www.w3.org/2001/SMIL20/" xmlns:anim="urn:oasis:names:tc:opendocument:xmlns:animation:1.0" xml:space="preserve">
 <defs class="ClipPathGroup">
  <clipPath id="presentation_clip_path" clipPathUnits="userSpaceOnUse">
   <rect x="0" y="0" width="20288" height="8835"/>
  </clipPath>
  <clipPath id="presentation_clip_path_shrink" clipPathUnits="userSpaceOnUse">
   <rect x="20" y="8" width="20248" height="8818"/>
  </clipPath>
 </defs>
 <defs class="TextShapeIndex">
  <g ooo:slide="id1" ooo:id-list="id3 id4 id5 id6 id7 id8 id9 id10 id11 id12 id13 id14 id15 id16 id17 id18 id19 id20 id21 id22 id23 id24 id25 id26 id27 id28 id29 id30 id31 id32 id33 id34 id35 id36 id37 id38 id39 id40 id41 id42 id43 id44 id45 id46 id47 id48 id49 id50 id51 id52 id53 id54 id55 id56 id57 id58 id59 id60 id61 id62 id63 id64 id65 id66 id67 id68 id69 id70 id71 id72 id73 id74 id75 id76 id77 id78 id79 id80 id81 id82 id83 id84 id85 id86 id87 id88 id89 id90 id91 id92 id93 id94 id95 id96 id97 id98 id99 id100 id101 id102 id103 id104 id105 id106 id107 id108 id109 id110 id111 id112 id113 id114 id115 id116 id117 id118 id119 id120 id121 id122 id123 id124 id125 id126 id127 id128 id129 id130 id131 id132 id133 id134 id135 id136 id137 id138 id139 id140 id141 id142 id143"/>
 </defs>
 <defs class="EmbeddedBulletChars">
  <g id="bullet-char-template-57356" transform="scale(0.00048828125,-0.00048828125)">
   <path d="M 580,1141 L 1163,571 580,0 -4,571 580,1141 Z"/>
  </g>
  <g id="bullet-char-template-57354" transform="scale(0.00048828125,-0.00048828125)">
   <path d="M 8,1128 L 1137,1128 1137,0 8,0 8,1128 Z"/>
  </g>
  <g id="bullet-char-template-10146" transform="scale(0.00048828125,-0.00048828125)">
   <path d="M 174,0 L 602,739 174,1481 1456,739 174,0 Z M 1358,739 L 309,1346 659,739 1358,739 Z"/>
  </g>
  <g id="bullet-char-template-10132" transform="scale(0.00048828125,-0.00048828125)">
   <path d="M 2015,739 L 1276,0 717,0 1260,543 174,543 174,936 1260,936 717,1481 1274,1481 2015,739 Z"/>
  </g>
  <g id="bullet-char-template-10007" transform="scale(0.00048828125,-0.00048828125)">
   <path d="M 0,-2 C -7,14 -16,27 -25,37 L 356,567 C 262,823 215,952 215,954 215,979 228,992 255,992 264,992 276,990 289,987 310,991 331,999 354,1012 L 381,999 492,748 772,1049 836,1024 860,1049 C 881,1039 901,1025 922,1006 886,937 835,863 770,784 769,783 710,716 594,584 L 774,223 C 774,196 753,168 711,139 L 727,119 C 717,90 699,76 672,76 641,76 570,178 457,381 L 164,-76 C 142,-110 111,-127 72,-127 30,-127 9,-110 8,-76 1,-67 -2,-52 -2,-32 -2,-23 -1,-13 0,-2 Z"/>
  </g>
  <g id="bullet-char-template-10004" transform="scale(0.00048828125,-0.00048828125)">
   <path d="M 285,-33 C 182,-33 111,30 74,156 52,228 41,333 41,471 41,549 55,616 82,672 116,743 169,778 240,778 293,778 328,747 346,684 L 369,508 C 377,444 397,411 428,410 L 1163,1116 C 1174,1127 1196,1133 1229,1133 1271,1133 1292,1118 1292,1087 L 1292,965 C 1292,929 1282,901 1262,881 L 442,47 C 390,-6 338,-33 285,-33 Z"/>
  </g>
  <g id="bullet-char-template-9679" transform="scale(0.00048828125,-0.00048828125)">
   <path d="M 813,0 C 632,0 489,54 383,161 276,268 223,411 223,592 223,773 276,916 383,1023 489,1130 632,1184 813,1184 992,1184 1136,1130 1245,1023 1353,916 1407,772 1407,592 1407,412 1353,268 1245,161 1136,54 992,0 813,0 Z"/>
  </g>
  <g id="bullet-char-template-8226" transform="scale(0.00048828125,-0.00048828125)">
   <path d="M 346,457 C 273,457 209,483 155,535 101,586 74,649 74,723 74,796 101,859 155,911 209,963 273,989 346,989 419,989 480,963 531,910 582,859 608,796 608,723 608,648 583,586 532,535 482,483 420,457 346,457 Z"/>
  </g>
  <g id="bullet-char-template-8211" transform="scale(0.00048828125,-0.00048828125)">
   <path d="M -4,459 L 1135,459 1135,606 -4,606 -4,459 Z"/>
  </g>
  <g id="bullet-char-template-61548" transform="scale(0.00048828125,-0.00048828125)">
   <path d="M 173,740 C 173,903 231,1043 346,1159 462,1274 601,1332 765,1332 928,1332 1067,1274 1183,1159 1299,1043 1357,903 1357,740 1357,577 1299,437 1183,322 1067,206 928,148 765,148 601,148 462,206 346,322 231,437 173,577 173,740 Z"/>
  </g>
 </defs>
 <defs class="TextEmbeddedBitmaps"/>
 <g>
  <g id="id2" class="Master_Slide">
   <g id="bg-id2" class="Background"/>
   <g id="bo-id2" class="BackgroundObjects"/>
  </g>
 </g>
 <g class="SlideGroup">
  <g>
   <g id="container-id1">
    <g id="id1" class="Slide" clip-path="url(#presentation_clip_path)">
     <g class="Page">
      <g class="com.sun.star.drawing.PolyPolygonShape">
       <g id="id3">
        <rect class="BoundingBox" stroke="none" fill="none" x="0" y="0" width="20291" height="8838"/>
       </g>
      </g>
      <g class="com.sun.star.drawing.ClosedBezierShape">
       <g id="id4">
        <rect class="BoundingBox" stroke="none" fill="none" x="-18" y="-18" width="20325" height="8873"/>
        <path fill="rgb(255,244,184)" fill-opacity="0.502" stroke="rgb(255,255,255)" stroke-opacity="0.502" d="M 1888,0 L 18402,0 C 19443,0 20288,450 20288,1005 L 20288,7831 C 20288,8386 19443,8836 18402,8836 L 1888,8836 C 845,8836 0,8386 0,7831 L 0,1005 C 0,450 845,0 1888,0 Z"/>
        <defs>
         <mask id="mask1">
          <g>
           <defs>
            <linearGradient id="gradient1" x1="10144" y1="-18" x2="10144" y2="8854" gradientUnits="userSpaceOnUse">
             <stop offset="0.5" style="stop-color:rgb(128,128,128)"/>
             <stop offset="0.5" style="stop-color:rgb(128,128,128)"/>
             <stop offset="1" style="stop-color:rgb(128,128,128)"/>
             <stop offset="1" style="stop-color:rgb(128,128,128)"/>
            </linearGradient>
           </defs>
           <path style="fill:url(#gradient1)" d="M -18,-18 L 20306,-18 20306,8854 -18,8854 -18,-18 Z"/>
          </g>
         </mask>
        </defs>
        <g style="mask:url(#mask1)">
         <path fill="none" stroke="rgb(255,255,255)" stroke-width="35" stroke-linejoin="round" d="M 1888,0 L 18402,0 C 19443,0 20288,450 20288,1005 L 20288,7831 C 20288,8386 19443,8836 18402,8836 L 1888,8836 C 845,8836 0,8386 0,7831 L 0,1005 C 0,450 845,0 1888,0 Z"/>
        </g>
       </g>
      </g>
      <g class="com.sun.star.drawing.PolyPolygonShape">
       <g id="id5">
        <rect class="BoundingBox" stroke="none" fill="none" x="5173" y="1444" width="7722" height="2806"/>
       </g>
      </g>
      <g class="com.sun.star.drawing.ClosedBezierShape">
       <g id="id6">
        <rect class="BoundingBox" stroke="none" fill="none" x="5155" y="1427" width="7757" height="2839"/>
        <path fill="rgb(206,238,252)" fill-opacity="0.729" stroke="rgb(255,255,255)" stroke-opacity="0.729" d="M 5891,1445 L 12174,1445 C 12570,1445 12893,1588 12893,1764 L 12893,3928 C 12893,4105 12570,4247 12174,4247 L 5891,4247 C 5494,4247 5173,4105 5173,3928 L 5173,1764 C 5173,1588 5494,1445 5891,1445 Z"/>
        <defs>
         <mask id="mask2">
          <g>
           <defs>
            <linearGradient id="gradient2" x1="9033" y1="1428" x2="9033" y2="4265" gradientUnits="userSpaceOnUse">
             <stop offset="0.5" style="stop-color:rgb(69,69,69)"/>
             <stop offset="0.5" style="stop-color:rgb(69,69,69)"/>
             <stop offset="1" style="stop-color:rgb(69,69,69)"/>
             <stop offset="1" style="stop-color:rgb(69,69,69)"/>
            </linearGradient>
           </defs>
           <path style="fill:url(#gradient2)" d="M 5156,1428 L 12911,1428 12911,4265 5156,4265 5156,1428 Z"/>
          </g>
         </mask>
        </defs>
        <g style="mask:url(#mask2)">
         <path fill="none" stroke="rgb(255,255,255)" stroke-width="35" stroke-linejoin="round" d="M 5891,1445 L 12174,1445 C 12570,1445 12893,1588 12893,1764 L 12893,3928 C 12893,4105 12570,4247 12174,4247 L 5891,4247 C 5494,4247 5173,4105 5173,3928 L 5173,1764 C 5173,1588 5494,1445 5891,1445 Z"/>
        </g>
       </g>
      </g>
      <g class="com.sun.star.drawing.PolyPolygonShape">
       <g id="id7">
        <rect class="BoundingBox" stroke="none" fill="none" x="421" y="1444" width="4458" height="2806"/>
       </g>
      </g>
      <g class="com.sun.star.drawing.ClosedBezierShape">
       <g id="id8">
        <rect class="BoundingBox" stroke="none" fill="none" x="403" y="1427" width="4493" height="2839"/>
        <path fill="rgb(206,238,252)" fill-opacity="0.729" stroke="rgb(255,255,255)" stroke-opacity="0.729" d="M 836,1445 L 4463,1445 C 4692,1445 4877,1588 4877,1764 L 4877,3928 C 4877,4105 4692,4247 4463,4247 L 836,4247 C 606,4247 421,4105 421,3928 L 421,1764 C 421,1588 606,1445 836,1445 Z"/>
        <defs>
         <mask id="mask3">
          <g>
           <defs>
            <linearGradient id="gradient3" x1="2649" y1="1428" x2="2649" y2="4265" gradientUnits="userSpaceOnUse">
             <stop offset="0.5" style="stop-color:rgb(69,69,69)"/>
             <stop offset="0.5" style="stop-color:rgb(69,69,69)"/>
             <stop offset="1" style="stop-color:rgb(69,69,69)"/>
             <stop offset="1" style="stop-color:rgb(69,69,69)"/>
            </linearGradient>
           </defs>
           <path style="fill:url(#gradient3)" d="M 404,1428 L 4895,1428 4895,4265 404,4265 404,1428 Z"/>
          </g>
         </mask>
        </defs>
        <g style="mask:url(#mask3)">
         <path fill="none" stroke="rgb(255,255,255)" stroke-width="35" stroke-linejoin="round" d="M 836,1445 L 4463,1445 C 4692,1445 4877,1588 4877,1764 L 4877,3928 C 4877,4105 4692,4247 4463,4247 L 836,4247 C 606,4247 421,4105 421,3928 L 421,1764 C 421,1588 606,1445 836,1445 Z"/>
        </g>
       </g>
      </g>
      <g class="com.sun.star.drawing.PolyPolygonShape">
       <g id="id9">
        <rect class="BoundingBox" stroke="none" fill="none" x="1018" y="3463" width="482" height="536"/>
       </g>
      </g>
      <g class="com.sun.star.drawing.ClosedBezierShape">
       <g id="id10">
        <rect class="BoundingBox" stroke="none" fill="none" x="1018" y="3463" width="481" height="535"/>
        <path fill="rgb(0,0,0)" stroke="none" d="M 1476,3959 C 1446,3971 1415,3981 1383,3988 1350,3994 1316,3997 1281,3997 1196,3997 1131,3974 1086,3929 1041,3883 1018,3817 1018,3732 1018,3648 1039,3583 1083,3536 1126,3487 1186,3463 1260,3463 1336,3463 1394,3486 1436,3529 1478,3574 1498,3637 1498,3718 L 1498,3772 1153,3772 C 1153,3812 1166,3842 1188,3862 1212,3881 1247,3891 1294,3891 1324,3891 1354,3888 1384,3879 1414,3870 1444,3856 1476,3836 L 1476,3959 Z M 1364,3673 C 1364,3637 1355,3611 1337,3593 1320,3574 1294,3566 1260,3566 1230,3566 1205,3576 1187,3594 1168,3612 1158,3640 1155,3673 L 1364,3673 Z"/>
       </g>
      </g>
      <g class="com.sun.star.drawing.PolyPolygonShape">
       <g id="id11">
        <rect class="BoundingBox" stroke="none" fill="none" x="1611" y="3463" width="412" height="524"/>
       </g>
      </g>
      <g class="com.sun.star.drawing.ClosedBezierShape">
       <g id="id12">
        <rect class="BoundingBox" stroke="none" fill="none" x="1610" y="3463" width="410" height="522"/>
        <path fill="rgb(0,0,0)" stroke="none" d="M 2019,3653 L 2019,3984 1888,3984 1888,3675 C 1888,3637 1882,3611 1872,3595 1862,3579 1844,3571 1820,3571 1796,3571 1778,3582 1764,3603 1750,3625 1744,3655 1744,3692 L 1744,3984 1611,3984 1611,3476 1744,3476 1744,3552 C 1753,3523 1769,3502 1791,3486 1814,3471 1842,3463 1874,3463 1922,3463 1958,3479 1983,3511 2007,3543 2019,3591 2019,3653 Z"/>
       </g>
      </g>
      <g class="com.sun.star.drawing.PolyPolygonShape">
       <g id="id13">
        <rect class="BoundingBox" stroke="none" fill="none" x="2141" y="3331" width="439" height="654"/>
       </g>
      </g>
      <g class="com.sun.star.drawing.ClosedBezierShape">
       <g id="id14">
        <rect class="BoundingBox" stroke="none" fill="none" x="2141" y="3331" width="438" height="653"/>
        <path fill="rgb(0,0,0)" stroke="none" d="M 2404,3331 L 2404,3475 2578,3475 2578,3578 2404,3578 2404,3818 C 2404,3841 2409,3857 2420,3867 2432,3877 2450,3882 2476,3882 L 2578,3882 2578,3983 2467,3983 C 2390,3983 2339,3971 2311,3947 2285,3923 2271,3877 2271,3812 L 2271,3578 2141,3578 2141,3475 2271,3475 2271,3331 2404,3331 Z"/>
       </g>
      </g>
      <g class="com.sun.star.drawing.PolyPolygonShape">
       <g id="id15">
        <rect class="BoundingBox" stroke="none" fill="none" x="2713" y="3228" width="467" height="758"/>
       </g>
      </g>
      <g class="com.sun.star.drawing.PolyPolygonShape">
       <g id="id16">
        <rect class="BoundingBox" stroke="none" fill="none" x="2713" y="3229" width="466" height="756"/>
        <path fill="rgb(0,0,0)" stroke="none" d="M 2748,3476 L 3012,3476 3012,3882 3178,3882 3178,3984 2713,3984 2713,3882 2878,3882 2878,3578 2748,3578 2748,3476 Z M 2878,3229 L 3012,3229 3012,3384 2878,3384 2878,3229 Z"/>
       </g>
      </g>
      <g class="com.sun.star.drawing.PolyPolygonShape">
       <g id="id17">
        <rect class="BoundingBox" stroke="none" fill="none" x="3248" y="3463" width="482" height="536"/>
       </g>
      </g>
      <g class="com.sun.star.drawing.ClosedBezierShape">
       <g id="id18">
        <rect class="BoundingBox" stroke="none" fill="none" x="3248" y="3463" width="481" height="535"/>
        <path fill="rgb(0,0,0)" stroke="none" d="M 3706,3959 C 3676,3971 3644,3981 3613,3988 3580,3994 3546,3997 3511,3997 3426,3997 3361,3974 3316,3929 3271,3883 3248,3817 3248,3732 3248,3648 3269,3583 3313,3536 3356,3487 3416,3463 3490,3463 3565,3463 3624,3486 3665,3529 3708,3574 3728,3637 3728,3718 L 3728,3772 3383,3772 C 3383,3812 3396,3842 3418,3862 3442,3881 3477,3891 3524,3891 3554,3891 3584,3888 3614,3879 3644,3870 3674,3856 3706,3836 L 3706,3959 Z M 3594,3673 C 3594,3637 3585,3611 3567,3593 3550,3574 3524,3566 3490,3566 3460,3566 3435,3576 3417,3594 3398,3612 3388,3640 3385,3673 L 3594,3673 Z"/>
       </g>
      </g>
      <g class="com.sun.star.drawing.PolyPolygonShape">
       <g id="id19">
        <rect class="BoundingBox" stroke="none" fill="none" x="3894" y="3463" width="394" height="524"/>
       </g>
      </g>
      <g class="com.sun.star.drawing.ClosedBezierShape">
       <g id="id20">
        <rect class="BoundingBox" stroke="none" fill="none" x="3895" y="3463" width="393" height="522"/>
        <path fill="rgb(0,0,0)" stroke="none" d="M 4286,3616 C 4271,3602 4255,3592 4235,3586 4216,3579 4195,3576 4171,3576 4142,3576 4118,3581 4097,3591 4075,3601 4059,3615 4048,3633 4040,3645 4035,3658 4033,3675 4029,3691 4028,3716 4028,3750 L 4028,3984 3895,3984 3895,3476 4028,3476 4028,3554 C 4042,3526 4062,3503 4088,3487 4116,3471 4147,3463 4183,3463 4201,3463 4218,3466 4236,3469 4253,3474 4271,3481 4286,3489 L 4286,3616 Z"/>
       </g>
      </g>
      <g class="com.sun.star.drawing.PolyPolygonShape">
       <g id="id21">
        <rect class="BoundingBox" stroke="none" fill="none" x="6024" y="3389" width="490" height="523"/>
       </g>
      </g>
      <g class="com.sun.star.drawing.ClosedBezierShape">
       <g id="id22">
        <rect class="BoundingBox" stroke="none" fill="none" x="6024" y="3389" width="488" height="522"/>
        <path fill="rgb(0,0,0)" stroke="none" d="M 6300,3452 C 6310,3430 6323,3415 6338,3404 6353,3394 6372,3389 6395,3389 6439,3389 6470,3404 6486,3434 6502,3464 6511,3528 6511,3623 L 6511,3910 6402,3910 6402,3583 C 6402,3546 6400,3521 6394,3508 6388,3494 6377,3488 6362,3488 6347,3488 6337,3495 6331,3508 6325,3521 6322,3546 6322,3583 L 6322,3910 6214,3910 6214,3583 C 6214,3546 6211,3521 6204,3508 6199,3495 6188,3488 6173,3488 6158,3488 6148,3494 6142,3508 6135,3521 6133,3546 6133,3583 L 6133,3910 6024,3910 6024,3402 6120,3402 6120,3454 C 6128,3434 6140,3418 6157,3407 6174,3395 6192,3389 6213,3389 6233,3389 6252,3395 6270,3408 6286,3419 6297,3434 6300,3452 Z"/>
       </g>
      </g>
      <g class="com.sun.star.drawing.PolyPolygonShape">
       <g id="id23">
        <rect class="BoundingBox" stroke="none" fill="none" x="6587" y="3389" width="463" height="536"/>
       </g>
      </g>
      <g class="com.sun.star.drawing.ClosedBezierShape">
       <g id="id24">
        <rect class="BoundingBox" stroke="none" fill="none" x="6587" y="3389" width="462" height="534"/>
        <path fill="rgb(0,0,0)" stroke="none" d="M 6863,3670 C 6812,3670 6777,3677 6759,3689 6739,3703 6729,3724 6729,3755 6729,3778 6736,3797 6750,3809 6762,3823 6781,3830 6805,3830 6840,3830 6868,3817 6886,3790 6905,3764 6915,3727 6915,3679 L 6915,3670 6863,3670 Z M 7048,3619 L 7048,3909 6915,3909 6915,3853 C 6899,3874 6879,3892 6854,3904 6829,3917 6801,3922 6771,3922 6712,3922 6667,3907 6636,3877 6603,3845 6587,3803 6587,3749 6587,3689 6606,3645 6645,3618 6683,3589 6742,3575 6824,3575 L 6915,3575 6915,3553 C 6915,3532 6908,3515 6893,3504 6876,3493 6854,3488 6824,3488 6791,3488 6761,3492 6731,3499 6701,3508 6670,3520 6637,3538 L 6637,3424 C 6667,3413 6697,3403 6727,3398 6757,3392 6790,3389 6824,3389 6906,3389 6964,3405 6998,3439 7030,3473 7048,3533 7048,3619 Z"/>
       </g>
      </g>
      <g class="com.sun.star.drawing.PolyPolygonShape">
       <g id="id25">
        <rect class="BoundingBox" stroke="none" fill="none" x="7101" y="3994" width="563" height="95"/>
       </g>
      </g>
      <g class="com.sun.star.drawing.PolyPolygonShape">
       <g id="id26">
        <rect class="BoundingBox" stroke="none" fill="none" x="7102" y="3994" width="561" height="93"/>
        <path fill="rgb(0,0,0)" stroke="none" d="M 7662,3994 L 7662,4086 7102,4086 7102,3994 7662,3994 Z"/>
       </g>
      </g>
      <g class="com.sun.star.drawing.PolyPolygonShape">
       <g id="id27">
        <rect class="BoundingBox" stroke="none" fill="none" x="7695" y="3401" width="491" height="511"/>
       </g>
      </g>
      <g class="com.sun.star.drawing.PolyPolygonShape">
       <g id="id28">
        <rect class="BoundingBox" stroke="none" fill="none" x="7696" y="3401" width="488" height="511"/>
        <path fill="rgb(0,0,0)" stroke="none" d="M 8183,3401 L 8022,3911 7858,3911 7696,3401 7831,3401 7939,3799 8048,3401 8183,3401 Z"/>
       </g>
      </g>
      <g class="com.sun.star.drawing.PolyPolygonShape">
       <g id="id29">
        <rect class="BoundingBox" stroke="none" fill="none" x="8260" y="3389" width="463" height="536"/>
       </g>
      </g>
      <g class="com.sun.star.drawing.ClosedBezierShape">
       <g id="id30">
        <rect class="BoundingBox" stroke="none" fill="none" x="8260" y="3389" width="462" height="534"/>
        <path fill="rgb(0,0,0)" stroke="none" d="M 8536,3670 C 8485,3670 8450,3677 8432,3689 8412,3703 8402,3724 8402,3755 8402,3778 8409,3797 8423,3809 8435,3823 8454,3830 8478,3830 8513,3830 8541,3817 8559,3790 8579,3764 8588,3727 8588,3679 L 8588,3670 8536,3670 Z M 8721,3619 L 8721,3909 8588,3909 8588,3853 C 8572,3874 8552,3892 8527,3904 8502,3917 8474,3922 8444,3922 8385,3922 8340,3907 8309,3877 8276,3845 8260,3803 8260,3749 8260,3689 8279,3645 8318,3618 8356,3589 8415,3575 8497,3575 L 8588,3575 8588,3553 C 8588,3532 8581,3515 8566,3504 8549,3493 8527,3488 8497,3488 8464,3488 8434,3492 8404,3499 8374,3508 8343,3520 8310,3538 L 8310,3424 C 8340,3413 8370,3403 8400,3398 8430,3392 8463,3389 8497,3389 8579,3389 8637,3405 8671,3439 8703,3473 8721,3533 8721,3619 Z"/>
       </g>
      </g>
      <g class="com.sun.star.drawing.PolyPolygonShape">
       <g id="id31">
        <rect class="BoundingBox" stroke="none" fill="none" x="8906" y="3389" width="393" height="523"/>
       </g>
      </g>
      <g class="com.sun.star.drawing.ClosedBezierShape">
       <g id="id32">
        <rect class="BoundingBox" stroke="none" fill="none" x="8906" y="3389" width="392" height="522"/>
        <path fill="rgb(0,0,0)" stroke="none" d="M 9297,3542 C 9282,3528 9266,3518 9246,3512 9227,3505 9206,3502 9182,3502 9153,3502 9129,3507 9108,3517 9086,3527 9070,3541 9059,3559 9051,3571 9046,3584 9044,3601 9040,3617 9039,3642 9039,3676 L 9039,3910 8906,3910 8906,3402 9039,3402 9039,3480 C 9053,3452 9073,3429 9099,3413 9127,3397 9158,3389 9194,3389 9212,3389 9229,3392 9247,3395 9264,3400 9282,3407 9297,3415 L 9297,3542 Z"/>
       </g>
      </g>
      <g class="com.sun.star.drawing.PolyPolygonShape">
       <g id="id33">
        <rect class="BoundingBox" stroke="none" fill="none" x="9398" y="3155" width="467" height="757"/>
       </g>
      </g>
      <g class="com.sun.star.drawing.PolyPolygonShape">
       <g id="id34">
        <rect class="BoundingBox" stroke="none" fill="none" x="9398" y="3155" width="466" height="756"/>
        <path fill="rgb(0,0,0)" stroke="none" d="M 9433,3402 L 9697,3402 9697,3808 9863,3808 9863,3910 9398,3910 9398,3808 9563,3808 9563,3504 9433,3504 9433,3402 Z M 9563,3155 L 9697,3155 9697,3310 9563,3310 9563,3155 Z"/>
       </g>
      </g>
      <g class="com.sun.star.drawing.PolyPolygonShape">
       <g id="id35">
        <rect class="BoundingBox" stroke="none" fill="none" x="9932" y="3389" width="463" height="536"/>
       </g>
      </g>
      <g class="com.sun.star.drawing.ClosedBezierShape">
       <g id="id36">
        <rect class="BoundingBox" stroke="none" fill="none" x="9932" y="3389" width="462" height="534"/>
        <path fill="rgb(0,0,0)" stroke="none" d="M 10208,3670 C 10157,3670 10122,3677 10104,3689 10084,3703 10074,3724 10074,3755 10074,3778 10081,3797 10095,3809 10107,3823 10126,3830 10150,3830 10185,3830 10213,3817 10231,3790 10251,3764 10260,3727 10260,3679 L 10260,3670 10208,3670 Z M 10393,3619 L 10393,3909 10260,3909 10260,3853 C 10244,3874 10224,3892 10199,3904 10174,3917 10146,3922 10116,3922 10057,3922 10012,3907 9981,3877 9948,3845 9932,3803 9932,3749 9932,3689 9951,3645 9990,3618 10028,3589 10087,3575 10169,3575 L 10260,3575 10260,3553 C 10260,3532 10253,3515 10238,3504 10221,3493 10199,3488 10169,3488 10136,3488 10106,3492 10076,3499 10046,3508 10015,3520 9982,3538 L 9982,3424 C 10012,3413 10042,3403 10072,3398 10102,3392 10135,3389 10169,3389 10251,3389 10309,3405 10343,3439 10375,3473 10393,3533 10393,3619 Z"/>
       </g>
      </g>
      <g class="com.sun.star.drawing.PolyPolygonShape">
       <g id="id37">
        <rect class="BoundingBox" stroke="none" fill="none" x="10515" y="3204" width="453" height="721"/>
       </g>
      </g>
      <g class="com.sun.star.drawing.ClosedBezierShape">
       <g id="id38">
        <rect class="BoundingBox" stroke="none" fill="none" x="10515" y="3204" width="452" height="719"/>
        <path fill="rgb(0,0,0)" stroke="none" d="M 10833,3657 C 10833,3608 10824,3570 10808,3542 10792,3514 10769,3501 10740,3501 10712,3501 10689,3514 10673,3542 10657,3570 10648,3608 10648,3657 10648,3706 10657,3745 10673,3772 10689,3800 10712,3814 10740,3814 10769,3814 10792,3800 10808,3772 10824,3745 10833,3706 10833,3657 Z M 10648,3474 C 10664,3446 10683,3424 10704,3411 10727,3397 10751,3389 10778,3389 10838,3389 10885,3413 10917,3458 10950,3504 10966,3571 10966,3656 10966,3741 10950,3806 10918,3854 10886,3900 10841,3922 10783,3922 10752,3922 10725,3915 10703,3901 10680,3886 10662,3864 10648,3835 L 10648,3910 10515,3910 10515,3204 10648,3204 10648,3474 Z"/>
       </g>
      </g>
      <g class="com.sun.star.drawing.PolyPolygonShape">
       <g id="id39">
        <rect class="BoundingBox" stroke="none" fill="none" x="11044" y="3204" width="460" height="709"/>
       </g>
      </g>
      <g class="com.sun.star.drawing.ClosedBezierShape">
       <g id="id40">
        <rect class="BoundingBox" stroke="none" fill="none" x="11045" y="3204" width="457" height="707"/>
        <path fill="rgb(0,0,0)" stroke="none" d="M 11180,3698 L 11180,3307 11045,3307 11045,3204 11313,3204 11313,3698 C 11313,3739 11319,3766 11332,3782 11344,3800 11366,3807 11395,3807 L 11501,3807 11501,3910 11358,3910 C 11294,3910 11249,3894 11222,3861 11194,3829 11180,3774 11180,3698 Z"/>
       </g>
      </g>
      <g class="com.sun.star.drawing.PolyPolygonShape">
       <g id="id41">
        <rect class="BoundingBox" stroke="none" fill="none" x="11604" y="3389" width="482" height="536"/>
       </g>
      </g>
      <g class="com.sun.star.drawing.ClosedBezierShape">
       <g id="id42">
        <rect class="BoundingBox" stroke="none" fill="none" x="11604" y="3389" width="481" height="534"/>
        <path fill="rgb(0,0,0)" stroke="none" d="M 12062,3884 C 12032,3897 12001,3907 11969,3913 11936,3919 11902,3922 11867,3922 11782,3922 11717,3899 11672,3854 11627,3808 11604,3743 11604,3658 11604,3574 11625,3509 11669,3462 11712,3413 11772,3389 11846,3389 11922,3389 11980,3412 12022,3455 12064,3500 12084,3563 12084,3644 L 12084,3698 11739,3698 C 11739,3738 11752,3768 11774,3788 11798,3807 11833,3817 11880,3817 11910,3817 11940,3813 11970,3804 12000,3795 12030,3782 12062,3762 L 12062,3884 Z M 11950,3599 C 11950,3563 11941,3537 11923,3519 11906,3500 11880,3492 11846,3492 11816,3492 11791,3502 11773,3520 11754,3538 11744,3565 11741,3599 L 11950,3599 Z"/>
       </g>
      </g>
      <g class="com.sun.star.drawing.PolyPolygonShape">
       <g id="id43">
        <rect class="BoundingBox" stroke="none" fill="none" x="1938" y="1804" width="323" height="456"/>
       </g>
      </g>
      <g class="com.sun.star.drawing.PolyPolygonShape">
       <g id="id44">
        <rect class="BoundingBox" stroke="none" fill="none" x="1939" y="1803" width="321" height="454"/>
        <path fill="rgb(244,35,0)" stroke="none" d="M 2143,2256 L 2054,2256 2054,1882 1939,1882 1939,1804 2259,1804 2259,1882 2143,1882 2143,2256 Z"/>
       </g>
      </g>
      <g class="com.sun.star.drawing.PolyPolygonShape">
       <g id="id45">
        <rect class="BoundingBox" stroke="none" fill="none" x="2301" y="1916" width="341" height="470"/>
       </g>
      </g>
      <g class="com.sun.star.drawing.ClosedBezierShape">
       <g id="id46">
        <rect class="BoundingBox" stroke="none" fill="none" x="2301" y="1916" width="340" height="468"/>
        <path fill="rgb(244,35,0)" stroke="none" d="M 2499,2292 C 2487,2324 2473,2347 2456,2362 2439,2376 2419,2383 2395,2383 L 2321,2383 2321,2316 2357,2316 C 2376,2316 2389,2313 2398,2307 2406,2301 2415,2287 2424,2264 L 2430,2245 2301,1916 2395,1916 2473,2136 2547,1916 2640,1916 2499,2292 Z"/>
       </g>
      </g>
      <g class="com.sun.star.drawing.PolyPolygonShape">
       <g id="id47">
        <rect class="BoundingBox" stroke="none" fill="none" x="2700" y="1909" width="303" height="478"/>
       </g>
      </g>
      <g class="com.sun.star.drawing.ClosedBezierShape">
       <g id="id48">
        <rect class="BoundingBox" stroke="none" fill="none" x="2700" y="1909" width="302" height="477"/>
        <path fill="rgb(244,35,0)" stroke="none" d="M 2789,2208 L 2789,2385 2700,2385 2700,1918 2789,1918 2789,1968 C 2798,1949 2810,1934 2825,1924 2840,1914 2858,1909 2879,1909 2918,1909 2948,1924 2970,1955 2991,1987 3001,2031 3001,2087 3001,2144 2991,2188 2968,2220 2947,2250 2916,2265 2876,2265 2858,2265 2842,2261 2827,2251 2813,2242 2799,2227 2789,2208 Z M 2913,2087 C 2913,2054 2907,2028 2896,2009 2886,1990 2871,1982 2851,1982 2832,1982 2817,1990 2805,2009 2794,2028 2789,2054 2789,2087 2789,2119 2794,2144 2805,2163 2817,2182 2832,2191 2851,2191 2871,2191 2886,2182 2896,2163 2907,2144 2913,2119 2913,2087 Z"/>
       </g>
      </g>
      <g class="com.sun.star.drawing.PolyPolygonShape">
       <g id="id49">
        <rect class="BoundingBox" stroke="none" fill="none" x="3054" y="1909" width="323" height="359"/>
       </g>
      </g>
      <g class="com.sun.star.drawing.ClosedBezierShape">
       <g id="id50">
        <rect class="BoundingBox" stroke="none" fill="none" x="3054" y="1909" width="322" height="358"/>
        <path fill="rgb(244,35,0)" stroke="none" d="M 3361,2240 C 3340,2249 3319,2255 3297,2260 3276,2264 3253,2266 3230,2266 3173,2266 3129,2250 3099,2220 3069,2190 3054,2146 3054,2088 3054,2033 3069,1989 3098,1957 3127,1925 3166,1909 3216,1909 3266,1909 3305,1924 3334,1954 3361,1983 3375,2026 3375,2079 L 3375,2116 3144,2116 C 3144,2142 3153,2162 3168,2176 3183,2189 3207,2195 3238,2195 3258,2195 3278,2192 3299,2186 3319,2181 3339,2171 3361,2158 L 3361,2240 Z M 3285,2049 C 3285,2026 3278,2008 3267,1995 3256,1984 3238,1978 3216,1978 3196,1978 3179,1984 3167,1997 3154,2009 3148,2027 3146,2049 L 3285,2049 Z"/>
       </g>
      </g>
      <g class="com.sun.star.drawing.PolyPolygonShape">
       <g id="id51">
        <rect class="BoundingBox" stroke="none" fill="none" x="5723" y="1745" width="303" height="456"/>
       </g>
      </g>
      <g class="com.sun.star.drawing.PolyPolygonShape">
       <g id="id52">
        <rect class="BoundingBox" stroke="none" fill="none" x="5723" y="1745" width="302" height="453"/>
        <path fill="rgb(244,35,0)" stroke="none" d="M 5723,1745 L 5820,1745 5946,2073 5946,1745 6024,1745 6024,2197 5929,2197 5802,1869 5802,2197 5723,2197 5723,1745 Z"/>
       </g>
      </g>
      <g class="com.sun.star.drawing.PolyPolygonShape">
       <g id="id53">
        <rect class="BoundingBox" stroke="none" fill="none" x="6088" y="1850" width="317" height="360"/>
       </g>
      </g>
      <g class="com.sun.star.drawing.ClosedBezierShape">
       <g id="id54">
        <rect class="BoundingBox" stroke="none" fill="none" x="6088" y="1850" width="316" height="358"/>
        <path fill="rgb(244,35,0)" stroke="none" d="M 6245,1923 C 6223,1923 6207,1931 6195,1950 6183,1969 6177,1995 6177,2028 6177,2062 6183,2088 6195,2107 6207,2126 6223,2135 6245,2135 6267,2135 6284,2126 6296,2107 6307,2088 6314,2062 6314,2028 6314,1995 6307,1969 6296,1950 6284,1931 6267,1923 6245,1923 Z M 6088,2028 C 6088,1974 6102,1930 6131,1898 6159,1866 6197,1850 6245,1850 6294,1850 6331,1866 6360,1898 6389,1930 6403,1974 6403,2028 6403,2083 6389,2127 6360,2158 6331,2191 6294,2207 6245,2207 6197,2207 6159,2191 6131,2158 6102,2127 6088,2083 6088,2028 Z"/>
       </g>
      </g>
      <g class="com.sun.star.drawing.PolyPolygonShape">
       <g id="id55">
        <rect class="BoundingBox" stroke="none" fill="none" x="6455" y="1850" width="328" height="353"/>
       </g>
      </g>
      <g class="com.sun.star.drawing.ClosedBezierShape">
       <g id="id56">
        <rect class="BoundingBox" stroke="none" fill="none" x="6455" y="1850" width="327" height="349"/>
        <path fill="rgb(244,35,0)" stroke="none" d="M 6639,1893 C 6647,1878 6654,1868 6666,1860 6676,1854 6688,1850 6703,1850 6732,1850 6752,1860 6763,1880 6775,1900 6781,1943 6781,2006 L 6781,2198 6708,2198 6708,1980 C 6708,1954 6706,1938 6702,1929 6698,1920 6691,1916 6681,1916 6671,1916 6664,1920 6659,1929 6656,1938 6654,1955 6654,1980 L 6654,2198 6582,2198 6582,1980 C 6582,1955 6580,1938 6575,1929 6572,1920 6564,1916 6554,1916 6544,1916 6538,1920 6534,1929 6530,1938 6528,1954 6528,1980 L 6528,2198 6455,2198 6455,1859 6520,1859 6520,1894 C 6525,1880 6533,1870 6544,1861 6555,1854 6568,1850 6582,1850 6595,1850 6608,1854 6619,1863 6631,1870 6637,1880 6639,1893 Z"/>
       </g>
      </g>
      <g class="com.sun.star.drawing.PolyPolygonShape">
       <g id="id57">
        <rect class="BoundingBox" stroke="none" fill="none" x="7200" y="1726" width="303" height="483"/>
       </g>
      </g>
      <g class="com.sun.star.drawing.ClosedBezierShape">
       <g id="id58">
        <rect class="BoundingBox" stroke="none" fill="none" x="7200" y="1726" width="302" height="481"/>
        <path fill="rgb(244,35,0)" stroke="none" d="M 7413,1906 L 7413,1726 7501,1726 7501,2197 7413,2197 7413,2147 C 7403,2167 7391,2181 7376,2191 7361,2201 7343,2206 7323,2206 7284,2206 7254,2191 7233,2159 7211,2128 7200,2084 7200,2028 7200,1970 7211,1926 7233,1896 7254,1865 7285,1850 7325,1850 7344,1850 7361,1855 7374,1864 7389,1874 7402,1888 7413,1906 Z M 7289,2029 C 7289,2062 7294,2087 7305,2106 7317,2124 7332,2133 7351,2133 7369,2133 7386,2124 7396,2106 7407,2087 7413,2062 7413,2029 7413,1995 7407,1970 7396,1951 7386,1933 7369,1924 7351,1924 7332,1924 7317,1933 7305,1951 7294,1970 7289,1995 7289,2029 Z"/>
       </g>
      </g>
      <g class="com.sun.star.drawing.PolyPolygonShape">
       <g id="id59">
        <rect class="BoundingBox" stroke="none" fill="none" x="7571" y="1850" width="324" height="360"/>
       </g>
      </g>
      <g class="com.sun.star.drawing.ClosedBezierShape">
       <g id="id60">
        <rect class="BoundingBox" stroke="none" fill="none" x="7572" y="1850" width="322" height="358"/>
        <path fill="rgb(244,35,0)" stroke="none" d="M 7879,2181 C 7858,2190 7837,2196 7815,2201 7794,2205 7771,2207 7748,2207 7691,2207 7647,2191 7617,2161 7587,2131 7572,2087 7572,2029 7572,1974 7587,1930 7616,1898 7645,1866 7684,1850 7734,1850 7784,1850 7823,1865 7852,1895 7879,1924 7893,1967 7893,2020 L 7893,2057 7662,2057 C 7662,2083 7671,2103 7686,2117 7701,2130 7725,2136 7756,2136 7776,2136 7796,2133 7817,2127 7837,2122 7857,2112 7879,2099 L 7879,2181 Z M 7803,1990 C 7803,1967 7796,1949 7785,1936 7774,1925 7756,1919 7734,1919 7714,1919 7697,1925 7685,1938 7672,1950 7666,1968 7664,1990 L 7803,1990 Z"/>
       </g>
      </g>
      <g class="com.sun.star.drawing.PolyPolygonShape">
       <g id="id61">
        <rect class="BoundingBox" stroke="none" fill="none" x="8315" y="1725" width="308" height="474"/>
       </g>
      </g>
      <g class="com.sun.star.drawing.ClosedBezierShape">
       <g id="id62">
        <rect class="BoundingBox" stroke="none" fill="none" x="8315" y="1726" width="306" height="472"/>
        <path fill="rgb(244,35,0)" stroke="none" d="M 8405,2055 L 8405,1794 8315,1794 8315,1726 8494,1726 8494,2055 C 8494,2083 8498,2102 8507,2113 8514,2123 8529,2129 8548,2129 L 8620,2129 8620,2197 8524,2197 C 8482,2197 8452,2187 8433,2164 8414,2143 8405,2107 8405,2055 Z"/>
       </g>
      </g>
      <g class="com.sun.star.drawing.PolyPolygonShape">
       <g id="id63">
        <rect class="BoundingBox" stroke="none" fill="none" x="8687" y="1850" width="311" height="360"/>
       </g>
      </g>
      <g class="com.sun.star.drawing.ClosedBezierShape">
       <g id="id64">
        <rect class="BoundingBox" stroke="none" fill="none" x="8687" y="1850" width="311" height="358"/>
        <path fill="rgb(244,35,0)" stroke="none" d="M 8871,2038 C 8837,2038 8815,2043 8801,2051 8789,2059 8782,2074 8782,2094 8782,2111 8786,2122 8795,2132 8805,2141 8817,2145 8832,2145 8856,2145 8874,2136 8888,2118 8900,2101 8906,2076 8906,2044 L 8906,2038 8871,2038 Z M 8996,2004 L 8996,2198 8906,2198 8906,2160 C 8896,2175 8883,2186 8865,2195 8849,2202 8830,2207 8810,2207 8771,2207 8741,2196 8720,2176 8698,2156 8687,2127 8687,2091 8687,2051 8700,2022 8726,2003 8751,1984 8791,1974 8845,1974 L 8906,1974 8906,1959 C 8906,1945 8901,1934 8891,1926 8880,1919 8865,1916 8845,1916 8824,1916 8804,1919 8784,1924 8763,1929 8742,1938 8721,1949 L 8721,1874 C 8741,1865 8760,1860 8781,1856 8801,1853 8822,1850 8845,1850 8900,1850 8939,1861 8962,1884 8984,1906 8996,1947 8996,2004 Z"/>
       </g>
      </g>
      <g class="com.sun.star.drawing.PolyPolygonShape">
       <g id="id65">
        <rect class="BoundingBox" stroke="none" fill="none" x="9428" y="1858" width="328" height="342"/>
       </g>
      </g>
      <g class="com.sun.star.drawing.PolyPolygonShape">
       <g id="id66">
        <rect class="BoundingBox" stroke="none" fill="none" x="9428" y="1858" width="327" height="341"/>
        <path fill="rgb(244,35,0)" stroke="none" d="M 9754,1858 L 9646,2198 9536,2198 9428,1858 9518,1858 9591,2124 9664,1858 9754,1858 Z"/>
       </g>
      </g>
      <g class="com.sun.star.drawing.PolyPolygonShape">
       <g id="id67">
        <rect class="BoundingBox" stroke="none" fill="none" x="9803" y="1850" width="312" height="360"/>
       </g>
      </g>
      <g class="com.sun.star.drawing.ClosedBezierShape">
       <g id="id68">
        <rect class="BoundingBox" stroke="none" fill="none" x="9803" y="1850" width="310" height="358"/>
        <path fill="rgb(244,35,0)" stroke="none" d="M 9987,2038 C 9953,2038 9931,2043 9917,2051 9905,2059 9898,2074 9898,2094 9898,2111 9902,2122 9911,2132 9921,2141 9933,2145 9948,2145 9972,2145 9990,2136 10004,2118 10016,2101 10022,2076 10022,2044 L 10022,2038 9987,2038 Z M 10111,2004 L 10111,2198 10022,2198 10022,2160 C 10012,2175 9999,2186 9981,2195 9965,2202 9946,2207 9926,2207 9887,2207 9857,2196 9836,2176 9814,2156 9803,2127 9803,2091 9803,2051 9816,2022 9842,2003 9867,1984 9907,1974 9961,1974 L 10022,1974 10022,1959 C 10022,1945 10017,1934 10007,1926 9996,1919 9981,1916 9961,1916 9940,1916 9920,1919 9900,1924 9879,1929 9858,1938 9837,1949 L 9837,1874 C 9857,1865 9876,1860 9897,1856 9917,1853 9938,1850 9961,1850 10016,1850 10055,1861 10078,1884 10100,1906 10111,1947 10111,2004 Z"/>
       </g>
      </g>
      <g class="com.sun.star.drawing.PolyPolygonShape">
       <g id="id69">
        <rect class="BoundingBox" stroke="none" fill="none" x="10234" y="1850" width="264" height="353"/>
       </g>
      </g>
      <g class="com.sun.star.drawing.ClosedBezierShape">
       <g id="id70">
        <rect class="BoundingBox" stroke="none" fill="none" x="10234" y="1850" width="262" height="349"/>
        <path fill="rgb(244,35,0)" stroke="none" d="M 10495,1951 C 10486,1943 10475,1936 10461,1931 10449,1928 10434,1925 10418,1925 10400,1925 10383,1929 10368,1935 10354,1941 10344,1951 10336,1964 10332,1971 10328,1980 10326,1991 10324,2003 10323,2019 10323,2041 L 10323,2198 10234,2198 10234,1859 10323,1859 10323,1911 C 10332,1891 10346,1876 10363,1866 10381,1855 10402,1850 10426,1850 10439,1850 10451,1851 10462,1855 10474,1858 10485,1861 10495,1868 L 10495,1951 Z"/>
       </g>
      </g>
      <g class="com.sun.star.drawing.PolyPolygonShape">
       <g id="id71">
        <rect class="BoundingBox" stroke="none" fill="none" x="10561" y="1693" width="312" height="508"/>
       </g>
      </g>
      <g class="com.sun.star.drawing.PolyPolygonShape">
       <g id="id72">
        <rect class="BoundingBox" stroke="none" fill="none" x="10561" y="1694" width="311" height="506"/>
        <path fill="rgb(244,35,0)" stroke="none" d="M 10585,1859 L 10760,1859 10760,2130 10871,2130 10871,2199 10561,2199 10561,2130 10671,2130 10671,1927 10585,1927 10585,1859 Z M 10671,1694 L 10760,1694 10760,1798 10671,1798 10671,1694 Z"/>
       </g>
      </g>
      <g class="com.sun.star.drawing.PolyPolygonShape">
       <g id="id73">
        <rect class="BoundingBox" stroke="none" fill="none" x="10919" y="1850" width="312" height="360"/>
       </g>
      </g>
      <g class="com.sun.star.drawing.ClosedBezierShape">
       <g id="id74">
        <rect class="BoundingBox" stroke="none" fill="none" x="10919" y="1850" width="309" height="358"/>
        <path fill="rgb(244,35,0)" stroke="none" d="M 11103,2038 C 11069,2038 11047,2043 11033,2051 11021,2059 11014,2074 11014,2094 11014,2111 11018,2122 11027,2132 11037,2141 11049,2145 11064,2145 11088,2145 11106,2136 11120,2118 11132,2101 11138,2076 11138,2044 L 11138,2038 11103,2038 Z M 11227,2004 L 11227,2198 11138,2198 11138,2160 C 11128,2175 11115,2186 11097,2195 11081,2202 11062,2207 11042,2207 11003,2207 10973,2196 10952,2176 10930,2156 10919,2127 10919,2091 10919,2051 10932,2022 10958,2003 10983,1984 11023,1974 11077,1974 L 11138,1974 11138,1959 C 11138,1945 11133,1934 11123,1926 11112,1919 11097,1916 11077,1916 11056,1916 11036,1919 11016,1924 10995,1929 10974,1938 10953,1949 L 10953,1874 C 10973,1865 10992,1860 11013,1856 11033,1853 11054,1850 11077,1850 11132,1850 11171,1861 11194,1884 11216,1906 11227,1947 11227,2004 Z"/>
       </g>
      </g>
      <g class="com.sun.star.drawing.PolyPolygonShape">
       <g id="id75">
        <rect class="BoundingBox" stroke="none" fill="none" x="11306" y="1726" width="303" height="483"/>
       </g>
      </g>
      <g class="com.sun.star.drawing.ClosedBezierShape">
       <g id="id76">
        <rect class="BoundingBox" stroke="none" fill="none" x="11306" y="1726" width="302" height="481"/>
        <path fill="rgb(244,35,0)" stroke="none" d="M 11519,2029 C 11519,1995 11513,1970 11502,1951 11492,1933 11477,1924 11457,1924 11438,1924 11423,1933 11411,1951 11400,1970 11395,1995 11395,2029 11395,2062 11400,2087 11411,2106 11423,2124 11438,2133 11457,2133 11477,2133 11492,2124 11502,2106 11513,2087 11519,2062 11519,2029 Z M 11395,1906 C 11405,1888 11419,1874 11433,1864 11448,1855 11464,1850 11482,1850 11522,1850 11553,1865 11574,1896 11597,1926 11607,1970 11607,2028 11607,2084 11597,2128 11576,2159 11554,2191 11524,2206 11485,2206 11464,2206 11446,2201 11431,2191 11416,2181 11404,2167 11395,2147 L 11395,2197 11306,2197 11306,1726 11395,1726 11395,1906 Z"/>
       </g>
      </g>
      <g class="com.sun.star.drawing.PolyPolygonShape">
       <g id="id77">
        <rect class="BoundingBox" stroke="none" fill="none" x="11660" y="1725" width="308" height="474"/>
       </g>
      </g>
      <g class="com.sun.star.drawing.ClosedBezierShape">
       <g id="id78">
        <rect class="BoundingBox" stroke="none" fill="none" x="11660" y="1726" width="306" height="472"/>
        <path fill="rgb(244,35,0)" stroke="none" d="M 11750,2055 L 11750,1794 11660,1794 11660,1726 11839,1726 11839,2055 C 11839,2083 11843,2102 11852,2113 11859,2123 11874,2129 11893,2129 L 11965,2129 11965,2197 11869,2197 C 11827,2197 11797,2187 11778,2164 11759,2143 11750,2107 11750,2055 Z"/>
       </g>
      </g>
      <g class="com.sun.star.drawing.PolyPolygonShape">
       <g id="id79">
        <rect class="BoundingBox" stroke="none" fill="none" x="12032" y="1850" width="323" height="360"/>
       </g>
      </g>
      <g class="com.sun.star.drawing.ClosedBezierShape">
       <g id="id80">
        <rect class="BoundingBox" stroke="none" fill="none" x="12032" y="1850" width="322" height="358"/>
        <path fill="rgb(244,35,0)" stroke="none" d="M 12339,2181 C 12318,2190 12297,2196 12275,2201 12254,2205 12231,2207 12208,2207 12151,2207 12107,2191 12077,2161 12047,2131 12032,2087 12032,2029 12032,1974 12047,1930 12076,1898 12105,1866 12144,1850 12194,1850 12244,1850 12283,1865 12312,1895 12339,1924 12353,1967 12353,2020 L 12353,2057 12122,2057 C 12122,2083 12131,2103 12146,2117 12161,2130 12185,2136 12216,2136 12236,2136 12256,2133 12277,2127 12297,2122 12317,2112 12339,2099 L 12339,2181 Z M 12263,1990 C 12263,1967 12256,1949 12245,1936 12234,1925 12216,1919 12194,1919 12174,1919 12157,1925 12145,1938 12132,1950 12126,1968 12124,1990 L 12263,1990 Z"/>
       </g>
      </g>
      <g class="com.sun.star.drawing.PolyPolygonShape">
       <g id="id81">
        <rect class="BoundingBox" stroke="none" fill="none" x="14400" y="1424" width="5693" height="2804"/>
       </g>
      </g>
      <g class="com.sun.star.drawing.ClosedBezierShape">
       <g id="id82">
        <rect class="BoundingBox" stroke="none" fill="none" x="14382" y="1406" width="5728" height="2839"/>
        <path fill="rgb(206,238,252)" fill-opacity="0.729" stroke="rgb(255,255,255)" stroke-opacity="0.729" d="M 14929,1424 L 19561,1424 C 19853,1424 20091,1567 20091,1743 L 20091,3907 C 20091,4084 19853,4226 19561,4226 L 14929,4226 C 14638,4226 14400,4084 14400,3907 L 14400,1743 C 14400,1567 14638,1424 14929,1424 Z"/>
        <defs>
         <mask id="mask4">
          <g>
           <defs>
            <linearGradient id="gradient4" x1="17246" y1="1407" x2="17246" y2="4244" gradientUnits="userSpaceOnUse">
             <stop offset="0.5" style="stop-color:rgb(69,69,69)"/>
             <stop offset="0.5" style="stop-color:rgb(69,69,69)"/>
             <stop offset="1" style="stop-color:rgb(69,69,69)"/>
             <stop offset="1" style="stop-color:rgb(69,69,69)"/>
            </linearGradient>
           </defs>
           <path style="fill:url(#gradient4)" d="M 14383,1407 L 20109,1407 20109,4244 14383,4244 14383,1407 Z"/>
          </g>
         </mask>
        </defs>
        <g style="mask:url(#mask4)">
         <path fill="none" stroke="rgb(255,255,255)" stroke-width="35" stroke-linejoin="round" d="M 14929,1424 L 19561,1424 C 19853,1424 20091,1567 20091,1743 L 20091,3907 C 20091,4084 19853,4226 19561,4226 L 14929,4226 C 14638,4226 14400,4084 14400,3907 L 14400,1743 C 14400,1567 14638,1424 14929,1424 Z"/>
        </g>
       </g>
      </g>
      <g class="com.sun.star.drawing.PolyPolygonShape">
       <g id="id83">
        <rect class="BoundingBox" stroke="none" fill="none" x="16493" y="3285" width="433" height="679"/>
       </g>
      </g>
      <g class="com.sun.star.drawing.PolyPolygonShape">
       <g id="id84">
        <rect class="BoundingBox" stroke="none" fill="none" x="16493" y="3285" width="432" height="678"/>
        <path fill="rgb(0,0,0)" stroke="none" d="M 16493,3845 L 16643,3845 16643,3405 16503,3439 16503,3319 16643,3285 16774,3285 16774,3845 16924,3845 16924,3962 16493,3962 16493,3845 Z"/>
       </g>
      </g>
      <g class="com.sun.star.drawing.PolyPolygonShape">
       <g id="id85">
        <rect class="BoundingBox" stroke="none" fill="none" x="17018" y="3273" width="433" height="692"/>
       </g>
      </g>
      <g class="com.sun.star.drawing.ClosedBezierShape">
       <g id="id86">
        <rect class="BoundingBox" stroke="none" fill="none" x="17018" y="3273" width="432" height="691"/>
        <path fill="rgb(0,0,0)" stroke="none" d="M 17163,3845 L 17449,3845 17449,3963 17018,3963 17018,3849 17091,3771 C 17177,3680 17230,3624 17249,3602 17271,3576 17287,3553 17297,3532 17307,3512 17312,3493 17312,3473 17312,3443 17302,3419 17285,3403 17266,3387 17240,3378 17207,3378 17182,3378 17156,3383 17126,3392 17096,3402 17066,3416 17033,3434 L 17033,3309 C 17066,3298 17097,3288 17128,3282 17158,3276 17188,3273 17217,3273 17289,3273 17345,3289 17386,3323 17428,3357 17448,3402 17448,3460 17448,3487 17444,3512 17435,3535 17425,3558 17410,3583 17389,3612 17373,3632 17329,3679 17256,3751 17217,3790 17186,3821 17163,3845 Z"/>
       </g>
      </g>
      <g class="com.sun.star.drawing.PolyPolygonShape">
       <g id="id87">
        <rect class="BoundingBox" stroke="none" fill="none" x="17569" y="3285" width="475" height="679"/>
       </g>
      </g>
      <g class="com.sun.star.drawing.PolyPolygonShape">
       <g id="id88">
        <rect class="BoundingBox" stroke="none" fill="none" x="17569" y="3285" width="473" height="678"/>
        <path fill="rgb(0,0,0)" stroke="none" d="M 17838,3434 L 17667,3702 17838,3702 17838,3434 Z M 17826,3285 L 17966,3285 17966,3702 18041,3702 18041,3816 17966,3816 17966,3962 17838,3962 17838,3816 17569,3816 17569,3687 17826,3285 Z"/>
       </g>
      </g>
      <g class="com.sun.star.drawing.PolyPolygonShape">
       <g id="id89">
        <rect class="BoundingBox" stroke="none" fill="none" x="14789" y="1783" width="272" height="454"/>
       </g>
      </g>
      <g class="com.sun.star.drawing.PolyPolygonShape">
       <g id="id90">
        <rect class="BoundingBox" stroke="none" fill="none" x="14789" y="1783" width="272" height="453"/>
        <path fill="rgb(244,35,0)" stroke="none" d="M 14789,1862 L 14789,1783 15059,1783 15059,1862 14968,1862 14968,2156 15059,2156 15059,2235 14789,2235 14789,2156 14879,2156 14879,1862 14789,1862 Z"/>
       </g>
      </g>
      <g class="com.sun.star.drawing.PolyPolygonShape">
       <g id="id91">
        <rect class="BoundingBox" stroke="none" fill="none" x="15160" y="1888" width="278" height="351"/>
       </g>
      </g>
      <g class="com.sun.star.drawing.ClosedBezierShape">
       <g id="id92">
        <rect class="BoundingBox" stroke="none" fill="none" x="15160" y="1888" width="274" height="349"/>
        <path fill="rgb(244,35,0)" stroke="none" d="M 15433,2016 L 15433,2236 15344,2236 15344,2029 C 15344,2004 15342,1987 15334,1976 15327,1966 15316,1961 15301,1961 15284,1961 15272,1967 15263,1982 15253,1996 15249,2016 15249,2041 L 15249,2236 15160,2236 15160,1897 15249,1897 15249,1947 C 15255,1928 15265,1914 15280,1903 15295,1893 15314,1888 15336,1888 15368,1888 15392,1899 15408,1921 15425,1942 15433,1973 15433,2016 Z"/>
       </g>
      </g>
      <g class="com.sun.star.drawing.PolyPolygonShape">
       <g id="id93">
        <rect class="BoundingBox" stroke="none" fill="none" x="15524" y="1730" width="312" height="508"/>
       </g>
      </g>
      <g class="com.sun.star.drawing.PolyPolygonShape">
       <g id="id94">
        <rect class="BoundingBox" stroke="none" fill="none" x="15524" y="1731" width="311" height="506"/>
        <path fill="rgb(244,35,0)" stroke="none" d="M 15548,1896 L 15723,1896 15723,2167 15834,2167 15834,2236 15524,2236 15524,2167 15634,2167 15634,1964 15548,1964 15548,1896 Z M 15634,1731 L 15723,1731 15723,1835 15634,1835 15634,1731 Z"/>
       </g>
      </g>
      <g class="com.sun.star.drawing.PolyPolygonShape">
       <g id="id95">
        <rect class="BoundingBox" stroke="none" fill="none" x="15885" y="1799" width="296" height="438"/>
       </g>
      </g>
      <g class="com.sun.star.drawing.ClosedBezierShape">
       <g id="id96">
        <rect class="BoundingBox" stroke="none" fill="none" x="15884" y="1799" width="294" height="437"/>
        <path fill="rgb(244,35,0)" stroke="none" d="M 16061,1799 L 16061,1895 16177,1895 16177,1963 16061,1963 16061,2125 C 16061,2140 16064,2150 16072,2157 16079,2164 16092,2166 16108,2166 L 16177,2166 16177,2235 16102,2235 C 16052,2235 16017,2226 15999,2210 15980,2194 15972,2164 15972,2120 L 15972,1963 15885,1963 15885,1895 15972,1895 15972,1799 16061,1799 Z"/>
       </g>
      </g>
      <g class="com.sun.star.drawing.PolyPolygonShape">
       <g id="id97">
        <rect class="BoundingBox" stroke="none" fill="none" x="16266" y="1730" width="312" height="508"/>
       </g>
      </g>
      <g class="com.sun.star.drawing.PolyPolygonShape">
       <g id="id98">
        <rect class="BoundingBox" stroke="none" fill="none" x="16266" y="1731" width="311" height="506"/>
        <path fill="rgb(244,35,0)" stroke="none" d="M 16290,1896 L 16465,1896 16465,2167 16576,2167 16576,2236 16266,2236 16266,2167 16376,2167 16376,1964 16290,1964 16290,1896 Z M 16376,1731 L 16465,1731 16465,1835 16376,1835 16376,1731 Z"/>
       </g>
      </g>
      <g class="com.sun.star.drawing.PolyPolygonShape">
       <g id="id99">
        <rect class="BoundingBox" stroke="none" fill="none" x="16624" y="1888" width="312" height="361"/>
       </g>
      </g>
      <g class="com.sun.star.drawing.ClosedBezierShape">
       <g id="id100">
        <rect class="BoundingBox" stroke="none" fill="none" x="16624" y="1888" width="309" height="358"/>
        <path fill="rgb(244,35,0)" stroke="none" d="M 16808,2076 C 16774,2076 16752,2081 16738,2089 16726,2097 16719,2112 16719,2132 16719,2149 16723,2160 16732,2170 16742,2179 16754,2183 16769,2183 16793,2183 16811,2174 16825,2156 16837,2139 16843,2114 16843,2082 L 16843,2076 16808,2076 Z M 16932,2042 L 16932,2236 16843,2236 16843,2198 C 16833,2213 16820,2224 16802,2233 16786,2240 16767,2245 16747,2245 16708,2245 16678,2234 16657,2214 16635,2194 16624,2165 16624,2129 16624,2089 16637,2060 16663,2041 16688,2022 16728,2012 16782,2012 L 16843,2012 16843,1997 C 16843,1983 16838,1972 16828,1964 16817,1957 16802,1954 16782,1954 16761,1954 16741,1957 16721,1962 16700,1967 16679,1976 16658,1987 L 16658,1912 C 16678,1903 16697,1898 16718,1894 16738,1891 16759,1888 16782,1888 16837,1888 16876,1899 16899,1922 16921,1944 16932,1985 16932,2042 Z"/>
       </g>
      </g>
      <g class="com.sun.star.drawing.PolyPolygonShape">
       <g id="id101">
        <rect class="BoundingBox" stroke="none" fill="none" x="16994" y="1764" width="308" height="473"/>
       </g>
      </g>
      <g class="com.sun.star.drawing.ClosedBezierShape">
       <g id="id102">
        <rect class="BoundingBox" stroke="none" fill="none" x="16994" y="1764" width="306" height="472"/>
        <path fill="rgb(244,35,0)" stroke="none" d="M 17084,2093 L 17084,1832 16994,1832 16994,1764 17173,1764 17173,2093 C 17173,2121 17177,2140 17186,2151 17193,2161 17208,2167 17227,2167 L 17299,2167 17299,2235 17203,2235 C 17161,2235 17131,2225 17112,2202 17093,2181 17084,2145 17084,2093 Z"/>
       </g>
      </g>
      <g class="com.sun.star.drawing.PolyPolygonShape">
       <g id="id103">
        <rect class="BoundingBox" stroke="none" fill="none" x="17381" y="1730" width="312" height="508"/>
       </g>
      </g>
      <g class="com.sun.star.drawing.PolyPolygonShape">
       <g id="id104">
        <rect class="BoundingBox" stroke="none" fill="none" x="17381" y="1731" width="311" height="506"/>
        <path fill="rgb(244,35,0)" stroke="none" d="M 17405,1896 L 17580,1896 17580,2167 17691,2167 17691,2236 17381,2236 17381,2167 17491,2167 17491,1964 17405,1964 17405,1896 Z M 17491,1731 L 17580,1731 17580,1835 17491,1835 17491,1731 Z"/>
       </g>
      </g>
      <g class="com.sun.star.drawing.PolyPolygonShape">
       <g id="id105">
        <rect class="BoundingBox" stroke="none" fill="none" x="17763" y="1888" width="274" height="361"/>
       </g>
      </g>
      <g class="com.sun.star.drawing.ClosedBezierShape">
       <g id="id106">
        <rect class="BoundingBox" stroke="none" fill="none" x="17762" y="1888" width="274" height="358"/>
        <path fill="rgb(244,35,0)" stroke="none" d="M 18011,1907 L 18011,1985 C 17995,1974 17979,1966 17961,1961 17942,1956 17925,1953 17907,1953 17887,1953 17872,1956 17862,1961 17852,1967 17847,1976 17847,1987 17847,2003 17868,2016 17912,2026 L 17916,2027 17941,2033 C 17974,2041 17998,2053 18013,2071 18028,2087 18035,2111 18035,2140 18035,2175 18024,2201 18000,2219 17978,2236 17942,2245 17897,2245 17876,2245 17856,2243 17833,2239 17812,2236 17791,2230 17768,2224 L 17768,2146 C 17788,2158 17808,2165 17828,2171 17848,2178 17868,2180 17887,2180 17909,2180 17925,2178 17935,2171 17946,2165 17951,2156 17951,2145 17951,2134 17947,2125 17940,2119 17932,2112 17914,2106 17886,2099 L 17861,2094 C 17827,2086 17802,2074 17787,2057 17771,2041 17763,2020 17763,1992 17763,1959 17774,1933 17798,1916 17822,1897 17856,1888 17898,1888 17917,1888 17937,1889 17956,1893 17975,1896 17994,1901 18011,1907 Z"/>
       </g>
      </g>
      <g class="com.sun.star.drawing.PolyPolygonShape">
       <g id="id107">
        <rect class="BoundingBox" stroke="none" fill="none" x="18109" y="1888" width="313" height="361"/>
       </g>
      </g>
      <g class="com.sun.star.drawing.ClosedBezierShape">
       <g id="id108">
        <rect class="BoundingBox" stroke="none" fill="none" x="18110" y="1888" width="310" height="358"/>
        <path fill="rgb(244,35,0)" stroke="none" d="M 18294,2076 C 18260,2076 18238,2081 18224,2089 18212,2097 18205,2112 18205,2132 18205,2149 18209,2160 18218,2170 18228,2179 18240,2183 18255,2183 18279,2183 18297,2174 18311,2156 18323,2139 18329,2114 18329,2082 L 18329,2076 18294,2076 Z M 18419,2042 L 18419,2236 18329,2236 18329,2198 C 18319,2213 18306,2224 18288,2233 18272,2240 18253,2245 18233,2245 18194,2245 18164,2234 18143,2214 18121,2194 18110,2165 18110,2129 18110,2089 18123,2060 18149,2041 18174,2022 18214,2012 18268,2012 L 18329,2012 18329,1997 C 18329,1983 18324,1972 18314,1964 18303,1957 18288,1954 18268,1954 18247,1954 18227,1957 18207,1962 18186,1967 18165,1976 18144,1987 L 18144,1912 C 18164,1903 18183,1898 18204,1894 18224,1891 18245,1888 18268,1888 18323,1888 18362,1899 18385,1922 18407,1944 18419,1985 18419,2042 Z"/>
       </g>
      </g>
      <g class="com.sun.star.drawing.PolyPolygonShape">
       <g id="id109">
        <rect class="BoundingBox" stroke="none" fill="none" x="18488" y="1799" width="294" height="438"/>
       </g>
      </g>
      <g class="com.sun.star.drawing.ClosedBezierShape">
       <g id="id110">
        <rect class="BoundingBox" stroke="none" fill="none" x="18488" y="1799" width="293" height="437"/>
        <path fill="rgb(244,35,0)" stroke="none" d="M 18664,1799 L 18664,1895 18780,1895 18780,1963 18664,1963 18664,2125 C 18664,2140 18667,2150 18675,2157 18682,2164 18695,2166 18711,2166 L 18780,2166 18780,2235 18705,2235 C 18655,2235 18620,2226 18602,2210 18583,2194 18575,2164 18575,2120 L 18575,1963 18488,1963 18488,1895 18575,1895 18575,1799 18664,1799 Z"/>
       </g>
      </g>
      <g class="com.sun.star.drawing.PolyPolygonShape">
       <g id="id111">
        <rect class="BoundingBox" stroke="none" fill="none" x="18869" y="1730" width="312" height="508"/>
       </g>
      </g>
      <g class="com.sun.star.drawing.PolyPolygonShape">
       <g id="id112">
        <rect class="BoundingBox" stroke="none" fill="none" x="18869" y="1731" width="311" height="506"/>
        <path fill="rgb(244,35,0)" stroke="none" d="M 18893,1896 L 19068,1896 19068,2167 19179,2167 19179,2236 18869,2236 18869,2167 18979,2167 18979,1964 18893,1964 18893,1896 Z M 18979,1731 L 19068,1731 19068,1835 18979,1835 18979,1731 Z"/>
       </g>
      </g>
      <g class="com.sun.star.drawing.PolyPolygonShape">
       <g id="id113">
        <rect class="BoundingBox" stroke="none" fill="none" x="19226" y="1888" width="317" height="361"/>
       </g>
      </g>
      <g class="com.sun.star.drawing.ClosedBezierShape">
       <g id="id114">
        <rect class="BoundingBox" stroke="none" fill="none" x="19226" y="1888" width="316" height="358"/>
        <path fill="rgb(244,35,0)" stroke="none" d="M 19383,1961 C 19361,1961 19345,1969 19334,1988 19321,2007 19315,2033 19315,2066 19315,2100 19321,2126 19334,2145 19345,2164 19361,2173 19383,2173 19405,2173 19422,2164 19434,2145 19445,2126 19452,2100 19452,2066 19452,2033 19445,2007 19434,1988 19422,1969 19405,1961 19383,1961 Z M 19226,2066 C 19226,2012 19240,1968 19269,1936 19297,1904 19335,1888 19383,1888 19432,1888 19469,1904 19498,1936 19527,1968 19541,2012 19541,2066 19541,2121 19527,2165 19498,2196 19469,2229 19432,2245 19383,2245 19335,2245 19297,2229 19269,2196 19240,2165 19226,2121 19226,2066 Z"/>
       </g>
      </g>
      <g class="com.sun.star.drawing.PolyPolygonShape">
       <g id="id115">
        <rect class="BoundingBox" stroke="none" fill="none" x="19620" y="1888" width="276" height="351"/>
       </g>
      </g>
      <g class="com.sun.star.drawing.ClosedBezierShape">
       <g id="id116">
        <rect class="BoundingBox" stroke="none" fill="none" x="19620" y="1888" width="274" height="349"/>
        <path fill="rgb(244,35,0)" stroke="none" d="M 19893,2016 L 19893,2236 19804,2236 19804,2029 C 19804,2004 19802,1987 19794,1976 19787,1966 19776,1961 19761,1961 19744,1961 19732,1967 19723,1982 19713,1996 19708,2016 19708,2041 L 19708,2236 19620,2236 19620,1897 19708,1897 19708,1947 C 19714,1928 19725,1914 19740,1903 19755,1893 19774,1888 19796,1888 19828,1888 19852,1899 19868,1921 19885,1942 19893,1973 19893,2016 Z"/>
       </g>
      </g>
      <g class="com.sun.star.drawing.PolyPolygonShape">
       <g id="id117">
        <rect class="BoundingBox" stroke="none" fill="none" x="7412" y="7324" width="537" height="787"/>
       </g>
      </g>
      <g class="com.sun.star.drawing.ClosedBezierShape">
       <g id="id118">
        <rect class="BoundingBox" stroke="none" fill="none" x="7414" y="7325" width="533" height="785"/>
        <path fill="rgb(0,0,0)" stroke="none" d="M 7936,7895 C 7931,7903 7921,7908 7907,7909 7906,7909 7892,7910 7867,7911 7871,7939 7887,7974 7915,8015 7931,8026 7940,8043 7940,8061 7940,8091 7921,8108 7884,8108 7849,8108 7824,8098 7811,8080 7807,8074 7803,8065 7802,8055 7802,8049 7802,8041 7802,8034 7796,8028 7780,7993 7752,7926 7701,7934 7638,7944 7564,7958 7557,7975 7548,8001 7539,8035 7540,8041 7542,8048 7542,8053 7542,8070 7535,8083 7524,8091 7513,8100 7500,8105 7484,8105 7468,8105 7452,8099 7437,8085 7422,8073 7414,8058 7414,8040 7414,8025 7422,8011 7435,7999 7482,7763 7538,7568 7604,7414 7603,7406 7603,7399 7603,7391 7603,7361 7613,7340 7634,7330 7643,7326 7654,7325 7668,7325 7695,7325 7716,7329 7733,7338 7756,7349 7766,7365 7766,7388 7766,7408 7761,7426 7750,7441 7761,7548 7787,7669 7826,7805 7830,7805 7842,7801 7864,7796 7877,7793 7887,7790 7894,7790 7902,7790 7909,7793 7914,7796 7935,7813 7946,7834 7946,7858 7946,7870 7942,7883 7936,7895 Z M 7712,7824 C 7702,7785 7686,7710 7662,7600 7618,7695 7592,7778 7584,7846 L 7712,7824 Z"/>
       </g>
      </g>
      <g class="com.sun.star.drawing.PolyPolygonShape">
       <g id="id119">
        <rect class="BoundingBox" stroke="none" fill="none" x="8006" y="7329" width="148" height="799"/>
       </g>
      </g>
      <g class="com.sun.star.drawing.ClosedBezierShape">
       <g id="id120">
        <rect class="BoundingBox" stroke="none" fill="none" x="8006" y="7329" width="147" height="797"/>
        <path fill="rgb(0,0,0)" stroke="none" d="M 8147,8090 C 8134,8112 8112,8125 8078,8125 8046,8125 8024,8114 8011,8094 8007,8087 8006,8080 8006,8072 8006,8066 8009,8056 8012,8042 8017,8027 8019,8016 8019,8007 L 8015,7407 C 8015,7374 8015,7358 8015,7357 8017,7349 8026,7343 8041,7337 8058,7332 8074,7329 8092,7329 8117,7329 8133,7334 8141,7343 8147,7353 8151,7362 8151,7372 8151,7379 8148,7390 8143,7405 8138,7422 8136,7434 8136,7444 L 8136,8001 C 8136,8011 8138,8022 8143,8039 8149,8054 8152,8064 8152,8071 8152,8077 8151,8084 8147,8090 Z"/>
       </g>
      </g>
      <g class="com.sun.star.drawing.PolyPolygonShape">
       <g id="id121">
        <rect class="BoundingBox" stroke="none" fill="none" x="8219" y="7555" width="347" height="704"/>
       </g>
      </g>
      <g class="com.sun.star.drawing.ClosedBezierShape">
       <g id="id122">
        <rect class="BoundingBox" stroke="none" fill="none" x="8219" y="7555" width="346" height="702"/>
        <path fill="rgb(0,0,0)" stroke="none" d="M 8551,7590 C 8552,7644 8556,7732 8560,7853 8562,7939 8564,8001 8564,8038 8564,8120 8557,8176 8544,8206 8531,8235 8505,8251 8465,8255 8416,8259 8372,8246 8333,8216 8316,8210 8303,8206 8298,8202 8288,8196 8280,8186 8278,8171 8272,8142 8295,8127 8347,8127 8359,8127 8372,8128 8384,8132 8393,8133 8402,8141 8413,8153 8423,8166 8433,8173 8442,8173 8461,8175 8470,8150 8470,8097 8470,8076 8468,8039 8465,7989 8442,8027 8427,8051 8417,8062 8396,8083 8372,8093 8344,8093 8307,8093 8275,8067 8252,8014 8230,7966 8219,7906 8219,7835 8219,7764 8230,7703 8254,7654 8279,7598 8316,7569 8362,7568 8387,7568 8405,7573 8417,7583 8428,7594 8440,7604 8451,7615 8443,7593 8445,7576 8457,7565 8463,7559 8473,7555 8487,7555 8501,7555 8514,7559 8526,7565 8540,7573 8547,7580 8551,7590 Z M 8440,7827 C 8442,7792 8438,7758 8427,7725 8415,7689 8398,7671 8378,7671 8362,7671 8348,7689 8336,7725 8324,7758 8318,7792 8317,7827 8316,7865 8318,7899 8326,7929 8334,7966 8346,7983 8362,7983 8376,7983 8391,7966 8410,7931 8427,7895 8437,7862 8440,7827 Z"/>
       </g>
      </g>
      <g class="com.sun.star.drawing.PolyPolygonShape">
       <g id="id123">
        <rect class="BoundingBox" stroke="none" fill="none" x="8644" y="7556" width="356" height="553"/>
       </g>
      </g>
      <g class="com.sun.star.drawing.ClosedBezierShape">
       <g id="id124">
        <rect class="BoundingBox" stroke="none" fill="none" x="8644" y="7557" width="355" height="551"/>
        <path fill="rgb(0,0,0)" stroke="none" d="M 8935,7603 C 8976,7646 8997,7716 8997,7816 8997,7894 8982,7960 8954,8014 8921,8075 8875,8107 8817,8107 8761,8107 8715,8079 8685,8024 8658,7975 8644,7914 8644,7840 8644,7774 8654,7715 8675,7663 8698,7607 8727,7575 8762,7565 8779,7560 8798,7557 8817,7557 8865,7557 8905,7572 8935,7603 Z M 8828,7648 C 8808,7646 8791,7666 8776,7706 8762,7742 8756,7781 8756,7821 8756,7879 8758,7920 8763,7945 8772,7988 8789,8012 8817,8017 8835,8019 8851,7995 8866,7945 8880,7896 8887,7845 8887,7790 8887,7699 8867,7652 8828,7648 Z"/>
       </g>
      </g>
      <g class="com.sun.star.drawing.PolyPolygonShape">
       <g id="id125">
        <rect class="BoundingBox" stroke="none" fill="none" x="9064" y="7543" width="363" height="570"/>
       </g>
      </g>
      <g class="com.sun.star.drawing.ClosedBezierShape">
       <g id="id126">
        <rect class="BoundingBox" stroke="none" fill="none" x="9064" y="7541" width="362" height="569"/>
        <path fill="rgb(0,0,0)" stroke="none" d="M 9424,7610 C 9421,7622 9410,7631 9389,7636 9364,7642 9347,7650 9341,7657 L 9189,7833 9189,7974 C 9189,7988 9193,8002 9201,8016 9208,8029 9212,8041 9212,8047 9212,8054 9209,8063 9206,8073 9196,8096 9173,8108 9142,8108 9119,8108 9102,8101 9088,8087 9079,8077 9075,8066 9075,8051 9075,8046 9075,8038 9077,8027 9078,8016 9079,8007 9079,8000 L 9079,7652 C 9079,7646 9077,7640 9072,7632 9067,7624 9064,7617 9064,7612 9064,7609 9065,7605 9068,7600 9075,7585 9100,7577 9143,7577 9176,7577 9194,7585 9199,7600 9201,7606 9202,7612 9202,7616 9202,7622 9199,7629 9194,7632 9189,7636 9187,7640 9187,7644 L 9189,7676 9270,7592 C 9278,7581 9288,7571 9298,7560 9308,7550 9321,7543 9335,7542 9355,7541 9376,7546 9395,7556 9415,7567 9425,7582 9425,7600 9425,7604 9424,7606 9424,7610 Z"/>
       </g>
      </g>
      <g class="com.sun.star.drawing.PolyPolygonShape">
       <g id="id127">
        <rect class="BoundingBox" stroke="none" fill="none" x="9479" y="7371" width="152" height="746"/>
       </g>
      </g>
      <g class="com.sun.star.drawing.ClosedBezierShape">
       <g id="id128">
        <rect class="BoundingBox" stroke="none" fill="none" x="9479" y="7371" width="148" height="746"/>
        <path fill="rgb(0,0,0)" stroke="none" d="M 9615,7387 C 9616,7390 9617,7392 9617,7397 9617,7402 9615,7412 9611,7426 9607,7442 9605,7454 9604,7460 9602,7466 9602,7480 9605,7501 9605,7514 9601,7523 9594,7526 9586,7531 9576,7533 9563,7533 9547,7533 9529,7529 9512,7523 9490,7514 9480,7503 9480,7489 9480,7484 9482,7478 9485,7470 9489,7462 9492,7456 9492,7451 9493,7446 9493,7434 9492,7414 9490,7399 9494,7387 9502,7382 9512,7375 9529,7371 9556,7371 9583,7371 9604,7376 9615,7387 Z M 9626,7614 C 9626,7623 9621,7637 9612,7656 9602,7673 9597,7688 9597,7701 L 9597,7974 C 9597,7986 9601,8004 9607,8027 9615,8049 9619,8064 9619,8073 9619,8085 9614,8095 9604,8102 9587,8110 9571,8116 9552,8116 9528,8116 9512,8108 9502,8092 9488,8072 9482,8013 9482,7914 9482,7891 9483,7854 9483,7803 9484,7755 9484,7718 9484,7694 9484,7686 9484,7674 9482,7661 9480,7647 9479,7637 9479,7630 9479,7610 9487,7593 9502,7578 9508,7572 9519,7568 9537,7568 9553,7568 9570,7570 9587,7577 9604,7582 9615,7588 9620,7594 9624,7602 9626,7608 9626,7614 Z"/>
       </g>
      </g>
      <g class="com.sun.star.drawing.PolyPolygonShape">
       <g id="id129">
        <rect class="BoundingBox" stroke="none" fill="none" x="9674" y="7426" width="385" height="699"/>
       </g>
      </g>
      <g class="com.sun.star.drawing.ClosedBezierShape">
       <g id="id130">
        <rect class="BoundingBox" stroke="none" fill="none" x="9674" y="7426" width="384" height="698"/>
        <path fill="rgb(0,0,0)" stroke="none" d="M 10019,7663 C 10014,7663 10006,7660 9995,7656 9985,7651 9977,7650 9971,7650 9967,7650 9962,7651 9958,7653 L 9923,7670 9923,7988 C 9923,7999 9930,8016 9942,8033 9956,8052 9961,8067 9958,8078 9955,8092 9946,8103 9931,8111 9916,8118 9900,8123 9882,8123 9848,8123 9826,8108 9813,8079 9811,8071 9808,8043 9807,7997 9807,7966 9807,7917 9808,7852 9809,7778 9811,7730 9811,7710 9807,7711 9801,7715 9792,7723 9783,7730 9774,7734 9765,7734 9758,7734 9749,7731 9739,7728 9695,7713 9674,7698 9674,7683 9674,7679 9675,7675 9677,7670 9682,7660 9689,7655 9702,7654 9719,7651 9730,7649 9734,7648 9748,7641 9774,7629 9812,7608 L 9812,7526 C 9812,7520 9811,7512 9807,7502 9803,7491 9802,7484 9802,7479 9802,7474 9803,7469 9807,7464 9822,7439 9844,7426 9872,7426 9903,7426 9926,7439 9938,7464 9943,7474 9946,7481 9946,7487 9946,7495 9942,7502 9935,7511 9927,7519 9923,7526 9923,7532 L 9923,7579 C 9935,7574 9947,7565 9961,7554 9971,7545 9981,7540 9987,7540 9991,7540 9995,7541 9999,7542 10037,7552 10056,7576 10056,7613 10056,7625 10054,7635 10046,7646 10039,7656 10030,7663 10019,7663 Z"/>
       </g>
      </g>
      <g class="com.sun.star.drawing.PolyPolygonShape">
       <g id="id131">
        <rect class="BoundingBox" stroke="none" fill="none" x="10124" y="7312" width="389" height="816"/>
       </g>
      </g>
      <g class="com.sun.star.drawing.ClosedBezierShape">
       <g id="id132">
        <rect class="BoundingBox" stroke="none" fill="none" x="10124" y="7312" width="387" height="813"/>
        <path fill="rgb(0,0,0)" stroke="none" d="M 10490,8005 C 10494,8022 10496,8032 10496,8035 10496,8048 10487,8059 10472,8068 10457,8075 10441,8080 10424,8080 10397,8080 10380,8070 10372,8050 10370,8042 10368,8035 10368,8030 10368,8022 10372,8013 10378,8004 10386,7994 10390,7985 10390,7978 10397,7945 10401,7899 10401,7839 10401,7734 10393,7680 10378,7677 10367,7675 10350,7692 10325,7730 10298,7769 10277,7813 10259,7861 10238,7918 10229,7968 10233,8012 10231,8015 10231,8019 10231,8023 10231,8028 10233,8035 10238,8047 10243,8057 10246,8064 10246,8070 10246,8077 10243,8083 10238,8088 10222,8113 10205,8124 10188,8124 10170,8124 10154,8110 10138,8084 10129,8068 10124,7975 10124,7806 10124,7744 10125,7604 10129,7383 10129,7380 10128,7375 10128,7366 10127,7358 10127,7352 10127,7348 10128,7342 10129,7337 10133,7332 10139,7318 10154,7312 10177,7312 10195,7312 10214,7317 10231,7328 10247,7338 10253,7351 10249,7365 10249,7368 10246,7373 10241,7378 10236,7383 10233,7388 10233,7393 L 10233,7691 C 10268,7612 10321,7571 10390,7566 10427,7564 10456,7591 10479,7649 10500,7702 10510,7768 10510,7845 10510,7904 10504,7958 10490,8005 Z"/>
       </g>
      </g>
      <g class="com.sun.star.drawing.PolyPolygonShape">
       <g id="id133">
        <rect class="BoundingBox" stroke="none" fill="none" x="10567" y="7554" width="633" height="576"/>
       </g>
      </g>
      <g class="com.sun.star.drawing.ClosedBezierShape">
       <g id="id134">
        <rect class="BoundingBox" stroke="none" fill="none" x="10569" y="7554" width="631" height="574"/>
        <path fill="rgb(0,0,0)" stroke="none" d="M 11195,8085 C 11186,8107 11169,8119 11140,8119 11104,8119 11077,8107 11060,8082 11051,8069 11046,8021 11046,7942 11046,7930 11046,7913 11046,7892 11046,7871 11047,7856 11047,7847 11047,7803 11045,7781 11040,7779 11031,7776 11000,7863 10946,8040 10946,8041 10945,8056 10942,8085 10941,8102 10935,8115 10923,8121 10915,8125 10906,8127 10896,8127 10878,8127 10861,8121 10844,8110 10827,8099 10817,8084 10812,8069 10807,8045 10803,8000 10804,7932 10806,7833 10806,7787 10806,7791 10806,7764 10803,7751 10801,7751 10786,7773 10774,7797 10763,7818 10738,7870 10723,7913 10719,7948 10717,7956 10717,7970 10719,7992 10720,8011 10718,8024 10710,8030 10702,8037 10692,8040 10678,8040 10663,8040 10648,8036 10633,8027 10618,8020 10607,8010 10599,8000 10590,7983 10584,7938 10583,7863 10583,7791 10583,7717 10583,7644 10583,7638 10580,7629 10575,7618 10572,7607 10569,7599 10569,7593 10569,7588 10570,7583 10574,7578 10582,7565 10602,7559 10635,7559 10675,7559 10699,7569 10708,7588 10709,7593 10710,7597 10710,7602 10710,7607 10707,7615 10702,7625 10695,7637 10693,7645 10693,7652 L 10693,7758 C 10712,7718 10736,7669 10766,7609 10769,7600 10773,7593 10777,7585 10781,7577 10786,7569 10792,7563 10799,7557 10811,7554 10827,7554 10851,7554 10876,7559 10901,7570 10926,7582 10940,7595 10940,7610 10941,7627 10938,7639 10933,7648 10927,7655 10925,7663 10925,7668 L 10923,7870 C 10933,7847 10951,7794 10977,7711 10997,7648 11013,7613 11023,7605 11037,7595 11057,7590 11084,7590 11134,7590 11159,7604 11161,7633 11160,7708 11160,7834 11161,8012 11161,8019 11167,8027 11180,8037 11192,8046 11199,8056 11199,8067 11199,8072 11197,8077 11195,8085 Z"/>
       </g>
      </g>
      <g class="com.sun.star.drawing.PolyPolygonShape">
       <g id="id135">
        <rect class="BoundingBox" stroke="none" fill="none" x="11269" y="7371" width="150" height="746"/>
       </g>
      </g>
      <g class="com.sun.star.drawing.ClosedBezierShape">
       <g id="id136">
        <rect class="BoundingBox" stroke="none" fill="none" x="11268" y="7371" width="149" height="746"/>
        <path fill="rgb(0,0,0)" stroke="none" d="M 11405,7387 C 11406,7390 11407,7392 11407,7397 11407,7402 11405,7412 11401,7426 11397,7442 11395,7454 11394,7460 11392,7466 11392,7480 11395,7501 11395,7514 11391,7523 11384,7526 11376,7531 11366,7533 11353,7533 11337,7533 11319,7529 11302,7523 11280,7514 11270,7503 11270,7489 11270,7484 11272,7478 11275,7470 11279,7462 11282,7456 11282,7451 11283,7446 11283,7434 11282,7414 11280,7399 11284,7387 11292,7382 11302,7375 11319,7371 11346,7371 11373,7371 11394,7376 11405,7387 Z M 11416,7614 C 11416,7623 11411,7637 11402,7656 11392,7673 11387,7688 11387,7701 L 11387,7974 C 11387,7986 11391,8004 11397,8027 11405,8049 11409,8064 11409,8073 11409,8085 11404,8095 11394,8102 11377,8110 11361,8116 11342,8116 11318,8116 11302,8108 11292,8092 11278,8072 11272,8013 11272,7914 11272,7891 11273,7854 11273,7803 11274,7755 11274,7718 11274,7694 11274,7686 11274,7674 11272,7661 11270,7647 11269,7637 11269,7630 11269,7610 11277,7593 11292,7578 11298,7572 11309,7568 11327,7568 11343,7568 11360,7570 11377,7577 11394,7582 11405,7588 11410,7594 11414,7602 11416,7608 11416,7614 Z"/>
       </g>
      </g>
      <g class="com.sun.star.drawing.PolyPolygonShape">
       <g id="id137">
        <rect class="BoundingBox" stroke="none" fill="none" x="11469" y="7556" width="358" height="732"/>
       </g>
      </g>
      <g class="com.sun.star.drawing.ClosedBezierShape">
       <g id="id138">
        <rect class="BoundingBox" stroke="none" fill="none" x="11469" y="7556" width="357" height="731"/>
        <path fill="rgb(0,0,0)" stroke="none" d="M 11821,7582 C 11824,7587 11825,7592 11825,7597 11825,7604 11822,7612 11817,7621 11812,7631 11810,7640 11810,7646 L 11810,8174 C 11810,8183 11812,8192 11816,8204 11820,8216 11822,8224 11822,8232 11822,8238 11821,8246 11819,8253 11811,8274 11791,8286 11761,8286 11722,8286 11697,8272 11685,8244 11681,8238 11680,8232 11680,8226 11680,8218 11683,8206 11692,8191 11700,8174 11703,8162 11703,8152 L 11703,8033 C 11677,8074 11651,8094 11626,8094 11581,8094 11542,8064 11510,8007 11483,7953 11469,7893 11469,7828 11469,7756 11478,7697 11497,7652 11519,7595 11557,7565 11609,7565 11647,7565 11681,7586 11710,7626 11708,7621 11707,7615 11703,7605 11701,7596 11700,7589 11700,7585 11700,7580 11701,7575 11703,7571 11712,7561 11728,7556 11752,7556 11791,7556 11814,7565 11821,7582 Z M 11692,7828 C 11692,7790 11687,7751 11676,7712 11663,7674 11651,7655 11637,7655 11607,7655 11591,7690 11591,7760 11591,7768 11591,7779 11591,7794 11592,7809 11592,7820 11592,7828 11592,7866 11596,7901 11602,7933 11611,7970 11622,7989 11637,7989 11650,7989 11662,7968 11675,7928 11687,7889 11692,7855 11692,7828 Z"/>
       </g>
      </g>
      <g class="com.sun.star.drawing.PolyPolygonShape">
       <g id="id139">
        <rect class="BoundingBox" stroke="none" fill="none" x="11904" y="7554" width="346" height="567"/>
       </g>
      </g>
      <g class="com.sun.star.drawing.ClosedBezierShape">
       <g id="id140">
        <rect class="BoundingBox" stroke="none" fill="none" x="11903" y="7554" width="345" height="566"/>
        <path fill="rgb(0,0,0)" stroke="none" d="M 12246,7632 C 12248,7640 12245,7650 12240,7660 12234,7675 12230,7685 12230,7693 12230,7822 12224,7911 12214,7961 12191,8066 12142,8119 12067,8119 11958,8119 11904,8020 11904,7823 11904,7769 11908,7713 11917,7653 11912,7639 11909,7627 11909,7615 11909,7598 11915,7583 11928,7570 11938,7559 11952,7554 11972,7554 11987,7554 12002,7558 12014,7564 12028,7570 12037,7578 12039,7587 12041,7590 12041,7595 12041,7599 12041,7608 12038,7620 12031,7638 12024,7655 12021,7670 12022,7682 12016,7716 12013,7759 12013,7812 12013,7866 12017,7910 12023,7946 12032,7986 12044,8007 12059,8007 12086,8007 12103,7962 12111,7875 12116,7831 12117,7761 12117,7664 12117,7658 12117,7649 12115,7638 12113,7625 12112,7617 12112,7612 12112,7597 12117,7587 12128,7582 12135,7578 12143,7577 12155,7577 12175,7577 12194,7580 12211,7589 12232,7600 12244,7614 12246,7632 Z"/>
       </g>
      </g>
      <g class="com.sun.star.drawing.PolyPolygonShape">
       <g id="id141">
        <rect class="BoundingBox" stroke="none" fill="none" x="12307" y="7557" width="340" height="551"/>
       </g>
      </g>
      <g class="com.sun.star.drawing.ClosedBezierShape">
       <g id="id142">
        <rect class="BoundingBox" stroke="none" fill="none" x="12307" y="7557" width="339" height="549"/>
        <path fill="rgb(0,0,0)" stroke="none" d="M 12643,7985 C 12638,8009 12622,8034 12593,8060 12589,8068 12572,8077 12541,8088 12508,8100 12479,8107 12454,8104 12407,8102 12370,8075 12343,8024 12320,7978 12307,7921 12307,7854 12307,7780 12321,7716 12348,7661 12378,7601 12419,7566 12470,7558 12480,7557 12490,7557 12499,7557 12573,7557 12614,7602 12622,7692 12625,7735 12608,7780 12572,7829 12531,7883 12481,7920 12419,7941 12426,7966 12431,7983 12435,7990 12444,8005 12455,8014 12470,8014 12485,8014 12500,8008 12516,7997 12529,7988 12539,7979 12544,7970 12546,7969 12549,7961 12551,7949 12554,7936 12560,7928 12570,7921 12574,7920 12579,7919 12584,7919 12599,7919 12613,7926 12627,7940 12642,7955 12647,7970 12643,7985 Z M 12498,7658 C 12472,7658 12452,7676 12436,7711 12416,7759 12407,7805 12411,7851 12441,7841 12467,7820 12493,7786 12518,7751 12530,7721 12530,7695 12530,7671 12519,7658 12498,7658 Z"/>
       </g>
      </g>
      <g class="com.sun.star.drawing.LineShape">
       <g id="id143">
        <rect class="BoundingBox" stroke="none" fill="none" x="12700" y="3471" width="1954" height="459"/>
        <path fill="none" stroke="rgb(0,0,0)" stroke-width="106" stroke-linejoin="round" d="M 14600,3700 L 13356,3700"/>
        <path fill="rgb(0,0,0)" stroke="none" d="M 12700,3700 L 13387,3929 13387,3471 12700,3700 Z"/>
       </g>
      </g>
     </g>
    </g>
   </g>
  </g>
 </g>
</svg>